M48
;Layer_Color=9474304
;FILE_FORMAT=2:5
INCH,LZ
;TYPE=PLATED
T01F00S00C0.01200
T03F00S00C0.02800
T04F00S00C0.04000
%
T01
X003Y00095
X0037Y0016
Y0024
X00446Y00226
Y00181
X0048Y00165
X00525
X0057
X00555Y0029
X00595
X00515
X00495Y0033
X00448Y00275
X00446Y00129
X0072Y00175
X0075Y00205
X0079
X0082Y00175
X008Y00475
X00795Y0054
Y0059
X0073Y00655
X00725Y0076
Y008
X00685
Y0076
X00642Y00693
X00645Y00545
X006Y005
X00505Y0059
X0048Y00685
X0048701Y0074
X0049Y0078
X0048Y0082
X00475Y00855
X0036
X00355Y00785
X00315Y00775
X0037Y0074
X0045Y00725
X0029Y00625
X0032Y00585
Y00435
X0029Y004
X00295Y00905
X00695Y0089
X0076Y0088
X008Y0085
X0089Y00715
X0096Y0079
X00955Y00845
X0094Y00595
Y0055
X00975Y00455
X0102
X0107
X0112
X0117
Y0039
X0112
X0107
X0102
X00975
Y0032
X0102
X0107
X0112
X0117
X0124Y00405
X01555Y00425
X015Y00525
X0149Y0064
X0156Y0061
X01615Y00625
X01645Y0059286
X0172Y00585
X01745Y00615
X0185Y00675
X0191Y0066
X01905Y00715
X019Y00755
X01817Y00756
X01685Y00775
X01625Y0081
X01305Y0083
X0205Y00735
X0216079Y0073043
X0222772
X0229465
X0236157
X024285
X0249543
X0246193Y0068
X02395
X0232807
X0226114
X0219421
X0229Y00565
Y005
Y0044
X0236259Y0046772
X0236253Y005328
X0242761Y0053233
X0242741Y0046723
X02395Y004
X0236161Y0032
X0242854
X0249547
X0246197Y0026957
X0239504
X0232757Y0027243
X0226Y00275
X02195
X0222776Y0032
X0229468
X0216083
X0209Y0033
X0206Y004
X02065Y00454
X02021Y00448
X0203Y00515
X02066
X0201Y0064
X01855Y0054
X01875Y00515
Y0048
X01835Y00475
X01805Y0042
X0188Y00395
X01985
X01965Y0027
X0203Y00225
X01685Y0021
X01615Y0015
X02495Y00435
Y005
Y00565
X02395Y00605
X0245Y0089
X02495
X02535
X02595Y0082
Y00735
X0262547Y0073425
Y0070079
Y0066732
Y0063386
Y0060039
Y0056693
Y0053347
Y005
Y0046654
Y0043307
Y0039961
Y0036614
Y0033268
Y0029921
Y0026575
X0256236Y0026957
X025289
X0267Y00185
T03
X00375Y0045
Y005
Y0055
X01375Y005
X01425
T04
X0035Y0005
X0045
X0055
X0065
X0075
X0085
X0095
X0105
X0115
X0125
X0135
X0145
X0155
X0165
X0175
X0185
X0195
X0205
X0215
X0225
X0235
X0245
X0255
X0265
Y0095
X0255
X0245
X0235
X0225
X0215
X0205
X0195
X0185
X0175
X0165
X0155
X0145
X0135
X0125
X0115
X0105
X0095
X0085
X0075
X0065
X0055
X0045
X0035
M30
