G04*
G04 #@! TF.GenerationSoftware,Altium Limited,Altium Designer,25.8.1 (18)*
G04*
G04 Layer_Physical_Order=1*
G04 Layer_Color=255*
%FSLAX25Y25*%
%MOIN*%
G70*
G04*
G04 #@! TF.SameCoordinates,84CAB14F-A09E-4842-903A-F773CCEDBAE3*
G04*
G04*
G04 #@! TF.FilePolarity,Positive*
G04*
G01*
G75*
%ADD12C,0.00600*%
%ADD17R,0.02126X0.02362*%
G04:AMPARAMS|DCode=18|XSize=33.06mil|YSize=9.55mil|CornerRadius=4.77mil|HoleSize=0mil|Usage=FLASHONLY|Rotation=270.000|XOffset=0mil|YOffset=0mil|HoleType=Round|Shape=RoundedRectangle|*
%AMROUNDEDRECTD18*
21,1,0.03306,0.00000,0,0,270.0*
21,1,0.02351,0.00955,0,0,270.0*
1,1,0.00955,0.00000,-0.01176*
1,1,0.00955,0.00000,0.01176*
1,1,0.00955,0.00000,0.01176*
1,1,0.00955,0.00000,-0.01176*
%
%ADD18ROUNDEDRECTD18*%
%ADD19R,0.04528X0.02362*%
%ADD20R,0.02362X0.01378*%
%ADD21R,0.02362X0.02126*%
G04:AMPARAMS|DCode=22|XSize=23.62mil|YSize=26.38mil|CornerRadius=2.95mil|HoleSize=0mil|Usage=FLASHONLY|Rotation=270.000|XOffset=0mil|YOffset=0mil|HoleType=Round|Shape=RoundedRectangle|*
%AMROUNDEDRECTD22*
21,1,0.02362,0.02047,0,0,270.0*
21,1,0.01772,0.02638,0,0,270.0*
1,1,0.00591,-0.01024,-0.00886*
1,1,0.00591,-0.01024,0.00886*
1,1,0.00591,0.01024,0.00886*
1,1,0.00591,0.01024,-0.00886*
%
%ADD22ROUNDEDRECTD22*%
%ADD23R,0.01378X0.02362*%
G04:AMPARAMS|DCode=24|XSize=35.43mil|YSize=68.9mil|CornerRadius=1.95mil|HoleSize=0mil|Usage=FLASHONLY|Rotation=90.000|XOffset=0mil|YOffset=0mil|HoleType=Round|Shape=RoundedRectangle|*
%AMROUNDEDRECTD24*
21,1,0.03543,0.06500,0,0,90.0*
21,1,0.03154,0.06890,0,0,90.0*
1,1,0.00390,0.03250,0.01577*
1,1,0.00390,0.03250,-0.01577*
1,1,0.00390,-0.03250,-0.01577*
1,1,0.00390,-0.03250,0.01577*
%
%ADD24ROUNDEDRECTD24*%
G04:AMPARAMS|DCode=25|XSize=125.98mil|YSize=68.9mil|CornerRadius=2.07mil|HoleSize=0mil|Usage=FLASHONLY|Rotation=90.000|XOffset=0mil|YOffset=0mil|HoleType=Round|Shape=RoundedRectangle|*
%AMROUNDEDRECTD25*
21,1,0.12598,0.06476,0,0,90.0*
21,1,0.12185,0.06890,0,0,90.0*
1,1,0.00413,0.03238,0.06093*
1,1,0.00413,0.03238,-0.06093*
1,1,0.00413,-0.03238,-0.06093*
1,1,0.00413,-0.03238,0.06093*
%
%ADD25ROUNDEDRECTD25*%
G04:AMPARAMS|DCode=26|XSize=23.62mil|YSize=26.38mil|CornerRadius=2.95mil|HoleSize=0mil|Usage=FLASHONLY|Rotation=180.000|XOffset=0mil|YOffset=0mil|HoleType=Round|Shape=RoundedRectangle|*
%AMROUNDEDRECTD26*
21,1,0.02362,0.02047,0,0,180.0*
21,1,0.01772,0.02638,0,0,180.0*
1,1,0.00591,-0.00886,0.01024*
1,1,0.00591,0.00886,0.01024*
1,1,0.00591,0.00886,-0.01024*
1,1,0.00591,-0.00886,-0.01024*
%
%ADD26ROUNDEDRECTD26*%
%ADD27R,0.02756X0.02362*%
%ADD28R,0.03150X0.03150*%
%ADD29R,0.04724X0.04724*%
%ADD30R,0.06100X0.05100*%
%ADD31R,0.01575X0.03150*%
%ADD32R,0.03150X0.01575*%
G04:AMPARAMS|DCode=33|XSize=53.43mil|YSize=22.53mil|CornerRadius=11.26mil|HoleSize=0mil|Usage=FLASHONLY|Rotation=0.000|XOffset=0mil|YOffset=0mil|HoleType=Round|Shape=RoundedRectangle|*
%AMROUNDEDRECTD33*
21,1,0.05343,0.00000,0,0,0.0*
21,1,0.03091,0.02253,0,0,0.0*
1,1,0.02253,0.01545,0.00000*
1,1,0.02253,-0.01545,0.00000*
1,1,0.02253,-0.01545,0.00000*
1,1,0.02253,0.01545,0.00000*
%
%ADD33ROUNDEDRECTD33*%
G04:AMPARAMS|DCode=34|XSize=9.55mil|YSize=33.06mil|CornerRadius=4.77mil|HoleSize=0mil|Usage=FLASHONLY|Rotation=270.000|XOffset=0mil|YOffset=0mil|HoleType=Round|Shape=RoundedRectangle|*
%AMROUNDEDRECTD34*
21,1,0.00955,0.02351,0,0,270.0*
21,1,0.00000,0.03306,0,0,270.0*
1,1,0.00955,-0.01176,0.00000*
1,1,0.00955,-0.01176,0.00000*
1,1,0.00955,0.01176,0.00000*
1,1,0.00955,0.01176,0.00000*
%
%ADD34ROUNDEDRECTD34*%
%ADD35R,0.00955X0.03306*%
%ADD36R,0.04528X0.01181*%
%ADD37R,0.05343X0.02253*%
%ADD51R,0.08071X0.08071*%
G04:AMPARAMS|DCode=52|XSize=39.37mil|YSize=70.87mil|CornerRadius=19.68mil|HoleSize=0mil|Usage=FLASHONLY|Rotation=270.000|XOffset=0mil|YOffset=0mil|HoleType=Round|Shape=RoundedRectangle|*
%AMROUNDEDRECTD52*
21,1,0.03937,0.03150,0,0,270.0*
21,1,0.00000,0.07087,0,0,270.0*
1,1,0.03937,-0.01575,0.00000*
1,1,0.03937,-0.01575,0.00000*
1,1,0.03937,0.01575,0.00000*
1,1,0.03937,0.01575,0.00000*
%
%ADD52ROUNDEDRECTD52*%
G04:AMPARAMS|DCode=54|XSize=39.37mil|YSize=86.61mil|CornerRadius=19.68mil|HoleSize=0mil|Usage=FLASHONLY|Rotation=270.000|XOffset=0mil|YOffset=0mil|HoleType=Round|Shape=RoundedRectangle|*
%AMROUNDEDRECTD54*
21,1,0.03937,0.04724,0,0,270.0*
21,1,0.00000,0.08661,0,0,270.0*
1,1,0.03937,-0.02362,0.00000*
1,1,0.03937,-0.02362,0.00000*
1,1,0.03937,0.02362,0.00000*
1,1,0.03937,0.02362,0.00000*
%
%ADD54ROUNDEDRECTD54*%
%ADD59R,0.01575X0.01575*%
%ADD60C,0.00603*%
%ADD61C,0.01001*%
%ADD62C,0.01500*%
%ADD63C,0.02000*%
%ADD64C,0.01200*%
%ADD65C,0.06400*%
%ADD66R,0.06400X0.06400*%
%ADD67R,0.04000X0.04000*%
%ADD68C,0.04000*%
%ADD69R,0.04000X0.04000*%
%ADD70C,0.02400*%
G36*
X255000Y90000D02*
X255000Y83500D01*
X246500D01*
Y86500D01*
X248000Y87500D01*
Y90000D01*
X248500Y90500D01*
X254500D01*
X255000Y90000D01*
D02*
G37*
G36*
X90400Y79228D02*
X89972Y78807D01*
X87450Y78850D01*
X85900Y80400D01*
X77524D01*
X77100Y80824D01*
X77100Y85600D01*
X78500Y87000D01*
X90400D01*
Y79228D01*
D02*
G37*
G36*
X61600Y71500D02*
X62200Y70900D01*
X64800D01*
X65700Y70000D01*
Y68400D01*
X60200Y62900D01*
X56800D01*
Y59300D01*
X56819Y59281D01*
Y58638D01*
X57462D01*
X57700Y58400D01*
X60200D01*
Y56200D01*
X57500D01*
X54100Y59600D01*
Y69900D01*
X55300D01*
X59200Y73800D01*
X61600Y73800D01*
Y71500D01*
D02*
G37*
G36*
X44200Y67927D02*
Y53020D01*
X35900D01*
X35802Y53000D01*
X34600D01*
Y67537D01*
X35025Y67960D01*
X44200Y67927D01*
D02*
G37*
G36*
X251000Y38500D02*
X227500D01*
Y62500D01*
X251000D01*
Y38500D01*
D02*
G37*
G36*
X58800Y40100D02*
X69500D01*
Y36206D01*
X60296D01*
X59793Y36568D01*
X53900Y36600D01*
X43300Y47000D01*
X42281Y48000D01*
X36100D01*
X35200Y48900D01*
Y51300D01*
X35900Y52000D01*
X46900D01*
X58800Y40100D01*
D02*
G37*
G36*
X119500Y13378D02*
X118959Y12848D01*
X91876Y13480D01*
X84500D01*
Y21000D01*
X82000Y23500D01*
X68735D01*
X68676Y23512D01*
X61500D01*
X61440Y23500D01*
X60500D01*
X59500Y22500D01*
X51000D01*
X50000Y23500D01*
Y31000D01*
X54500Y35500D01*
X59500D01*
X60000Y35000D01*
X71000Y35000D01*
X72500Y36500D01*
Y41500D01*
X82500D01*
X91000Y50000D01*
X119500D01*
Y13378D01*
D02*
G37*
G36*
X36100Y46980D02*
X41864D01*
X42586Y46272D01*
X45000Y43904D01*
Y30500D01*
X34500D01*
Y47000D01*
X36002D01*
X36100Y46980D01*
D02*
G37*
G36*
X69100Y22068D02*
X69100Y21440D01*
X69100Y16300D01*
X67100Y14300D01*
X48100D01*
X46700Y15700D01*
Y20800D01*
X47340Y21440D01*
X59951D01*
X61500Y22492D01*
X68676D01*
X69100Y22068D01*
D02*
G37*
D12*
X67063Y65781D02*
Y69459D01*
X74937Y68328D02*
Y69459D01*
X78541Y73063D02*
X80437D01*
X78541Y75032D02*
X80731D01*
X79694Y76977D02*
X81123D01*
X79694Y78946D02*
X81500D01*
X80437Y73063D02*
X81500Y72000D01*
X80731Y75032D02*
X81500Y74263D01*
X81123Y76977D02*
X81500Y76600D01*
X74937Y84541D02*
Y86914D01*
X75523Y87500D01*
X80000Y85000D02*
X80179Y84821D01*
X74937Y68328D02*
X86584Y56681D01*
X86736D01*
X87299Y56118D01*
Y56000D02*
Y56118D01*
X64683Y63402D02*
X67063Y65781D01*
X64683Y60904D02*
Y63402D01*
X64500Y60720D02*
X64683Y60904D01*
X59000Y60701D02*
X59010Y60711D01*
X64490D01*
X64500Y60720D01*
X100000Y66701D02*
Y73000D01*
X103520Y76520D01*
X107018D01*
X107258Y76760D01*
X90018Y74300D02*
X97618Y66701D01*
X100000D01*
X87028Y74300D02*
X90018D01*
X85066Y76263D02*
X87028Y74300D01*
X81837Y76263D02*
X85066D01*
X81500Y76600D02*
X81837Y76263D01*
X99819Y79001D02*
Y80236D01*
X100382Y80799D01*
X100500D01*
X97118Y76300D02*
X99819Y79001D01*
X100500Y80799D02*
X108478D01*
X111429Y77848D01*
Y68493D02*
Y77848D01*
X108323Y65386D02*
X111429Y68493D01*
X108323Y63338D02*
Y65386D01*
X107744Y62760D02*
X108323Y63338D01*
X107258Y62760D02*
X107744D01*
X87892Y76300D02*
X97118D01*
X85246Y78946D02*
X87892Y76300D01*
X81500Y78946D02*
X85246D01*
X75500Y87500D02*
X75523D01*
X75500D02*
X76000Y88000D01*
X149000Y64000D02*
X198500Y14500D01*
X202299D01*
X87299Y61000D02*
Y66000D01*
X81500Y72000D02*
X82500Y71000D01*
X85322Y66178D02*
X87239D01*
X87299Y66118D01*
X82500Y69000D02*
Y71000D01*
Y69000D02*
X85322Y66178D01*
X206617Y19800D02*
X211799Y14618D01*
Y14500D02*
Y14618D01*
X86732Y71768D02*
X88732D01*
X89000Y71500D01*
X84500Y74000D02*
X86732Y71768D01*
X81763Y74000D02*
X84500D01*
X81500Y74263D02*
X81763Y74000D01*
X195000Y22000D02*
X197200Y19800D01*
X156000Y61000D02*
X186000Y31000D01*
X197200Y19800D02*
X206617D01*
X194672Y22000D02*
X195000D01*
X186000Y30672D02*
X194672Y22000D01*
X186000Y30672D02*
Y31000D01*
X199700Y68800D02*
X206947D01*
X190500Y71500D02*
X197000D01*
X199700Y68800D01*
X193319Y68700D02*
X195286Y66732D01*
X186486Y68700D02*
X193319D01*
X185000Y67500D02*
X185286D01*
X186486Y68700D01*
X195286Y66732D02*
X211945D01*
X201000Y64000D02*
X207090D01*
X207704Y63386D01*
X200182Y74500D02*
X203882Y70800D01*
X190000Y75500D02*
X190286D01*
X191286Y74500D02*
X200182D01*
X190286Y75500D02*
X191286Y74500D01*
X174500Y61500D02*
X196257D01*
X172000Y58500D02*
X176379D01*
X176679Y58800D01*
X208701D01*
X164500Y67721D02*
X178220D01*
X189000Y78500D01*
X195799D01*
X176000Y19417D02*
X176819Y18598D01*
X173000Y21870D02*
X173338Y22208D01*
X175292D01*
X176000Y19417D02*
Y21500D01*
X175292Y22208D02*
X176000Y21500D01*
X176819Y18598D02*
X179500D01*
X188000Y31500D02*
Y39500D01*
Y31500D02*
X195500Y24000D01*
X200682D01*
X80179Y84821D02*
X83200D01*
X83761Y85382D01*
X89181D01*
X89289Y85490D02*
X89299Y85500D01*
X89181Y85382D02*
X89289Y85490D01*
X89280Y80000D02*
X89289Y80010D01*
X40882Y71299D02*
X41000D01*
X39083Y69500D02*
X40882Y71299D01*
X32000Y69500D02*
X39083D01*
X30398Y71102D02*
X32000Y69500D01*
X24764Y71102D02*
X30398D01*
X41000Y84701D02*
Y87000D01*
X39800Y88200D02*
X41000Y87000D01*
X34150Y88200D02*
X39800D01*
X28863Y82913D02*
X34150Y88200D01*
X24764Y82913D02*
X28863D01*
X206200Y56800D02*
X209558Y53443D01*
X176823Y55505D02*
X178118Y56800D01*
X206200D01*
X210284Y57752D02*
X210870Y57166D01*
X209749Y57752D02*
X210284D01*
X208701Y58800D02*
X209749Y57752D01*
X196659Y61098D02*
X210284D01*
X210870Y60513D01*
X196257Y61500D02*
X196659Y61098D01*
X211157Y60039D02*
X211945D01*
X210870Y60327D02*
Y60513D01*
Y60327D02*
X211157Y60039D01*
X164500Y59286D02*
X168281Y55505D01*
X176823D01*
X210550Y42700D02*
X211157Y43307D01*
X211945D01*
X204200Y42700D02*
X210550D01*
X198500Y39500D02*
X201000D01*
X204200Y42700D01*
X211849Y53443D02*
X211945Y53347D01*
X209558Y53443D02*
X211849D01*
X30807Y12800D02*
X40501D01*
X41000Y13299D01*
X24764Y15118D02*
X28488D01*
X30807Y12800D01*
X39733Y28500D02*
X40319Y27914D01*
X32500Y28500D02*
X39733D01*
X40882Y27201D02*
X41000D01*
X40319Y27764D02*
X40882Y27201D01*
X40319Y27764D02*
Y27914D01*
X30929Y26929D02*
X32500Y28500D01*
X24764Y26929D02*
X30929D01*
X150000Y31787D02*
Y52500D01*
Y31787D02*
X153987Y27799D01*
X164500D01*
Y21721D02*
Y27799D01*
X157020Y21721D02*
X164500D01*
X155650Y20350D02*
X157020Y21721D01*
X155650Y16142D02*
Y20350D01*
X124350Y16142D02*
X155650D01*
X125500Y54500D02*
X128900Y51100D01*
X120500Y54500D02*
X125500D01*
X115788Y59212D02*
X120500Y54500D01*
X115788Y59212D02*
Y65921D01*
X128900Y20192D02*
Y51100D01*
X115209Y66500D02*
X115788Y65921D01*
X114742Y66500D02*
X115209D01*
X124850Y16142D02*
X128900Y20192D01*
X124350Y16142D02*
X124850D01*
X155650Y66142D02*
X161914D01*
X124909Y66700D02*
X155091D01*
X155650Y66142D01*
X124350D02*
X124909Y66700D01*
X163095Y66961D02*
X163174Y67039D01*
X163819D01*
X161914Y66142D02*
X162733Y66961D01*
X163095D01*
X163819Y67039D02*
X164500Y67721D01*
X124350Y66142D02*
Y72437D01*
X116288Y80500D02*
X124350Y72437D01*
X114742Y80500D02*
X116288D01*
X103000Y64000D02*
Y69654D01*
X103586Y70240D01*
X107258D01*
X102299Y63299D02*
X103000Y64000D01*
X100000Y63299D02*
X102299D01*
X107238Y84220D02*
X107258Y84240D01*
X100520Y84220D02*
X107238D01*
X100500Y84201D02*
X100520Y84220D01*
X236872Y81628D02*
X249958D01*
X235000Y83500D02*
X236872Y81628D01*
X199201Y83500D02*
X235000D01*
X252602Y77846D02*
X252890Y77559D01*
X252602Y77846D02*
Y78983D01*
X249958Y81628D02*
X252602Y78983D01*
X199201Y78500D02*
Y83500D01*
X238300Y88300D02*
X245000Y95000D01*
X197918Y88300D02*
X238300D01*
X195799Y86181D02*
X197918Y88300D01*
X195799Y83500D02*
Y86181D01*
X215000Y5000D02*
X215100Y5100D01*
Y14400D01*
X215201Y14500D01*
X205000Y5000D02*
X205350Y5350D01*
Y14150D01*
X205701Y14500D01*
X211157Y56693D02*
X211945D01*
X210870Y56980D02*
X211157Y56693D01*
X210870Y56980D02*
Y57166D01*
X207704Y63386D02*
X211945D01*
X180500Y42000D02*
X180700Y42200D01*
X189632D01*
X209134Y33134D02*
X210870D01*
X209000Y33000D02*
X209134Y33134D01*
X210870D02*
X211004Y33268D01*
X211945D01*
X206947Y68800D02*
X208225Y70079D01*
X211945D01*
X203882Y70800D02*
X206118D01*
X208744Y73425D01*
X211945D01*
X176800Y90300D02*
X220300D01*
X173000Y86500D02*
X176800Y90300D01*
X220300D02*
X225000Y95000D01*
X173000Y81870D02*
Y86500D01*
Y78130D02*
X173681Y78811D01*
X174966D01*
X175878Y79723D02*
Y81115D01*
X174966Y78811D02*
X175878Y79723D01*
Y81115D02*
X176464Y81701D01*
X179000D01*
X168500Y77500D02*
X168768Y77768D01*
X171379Y81189D02*
X172319D01*
X168768Y78578D02*
X171379Y81189D01*
X168768Y77768D02*
Y78578D01*
X172319Y81189D02*
X173000Y81870D01*
X194111Y35268D02*
X207500D01*
X191365Y38014D02*
X194111Y35268D01*
X191365Y38014D02*
Y40467D01*
X189632Y42200D02*
X191365Y40467D01*
X207500Y35268D02*
X208846Y36614D01*
X211945D01*
X200682Y24000D02*
X203256Y26575D01*
X211945D01*
X206000Y40000D02*
X206039Y39961D01*
X211945D01*
X196500Y27000D02*
X199421Y29921D01*
X211945D01*
X232784Y22468D02*
Y27216D01*
X232757Y27243D02*
X232784Y27216D01*
Y22468D02*
X232811Y22441D01*
X219463Y27463D02*
X219500Y27500D01*
X219463Y22478D02*
Y27463D01*
X226059Y22500D02*
X226118Y22441D01*
X226059Y22500D02*
Y27441D01*
X226000Y27500D02*
X226059Y27441D01*
X219425Y22441D02*
X219463Y22478D01*
X249543Y22441D02*
Y31996D01*
X246197Y22441D02*
Y26957D01*
X235000Y5000D02*
X244214Y14214D01*
X254786D01*
X259583Y19010D01*
Y22441D01*
X250000Y11000D02*
X254401D01*
X262929Y19528D01*
Y22441D01*
X245000Y6000D02*
X250000Y11000D01*
X245000Y5000D02*
Y6000D01*
X246197Y68004D02*
Y77559D01*
X216079Y73043D02*
Y77559D01*
Y22441D02*
Y31996D01*
X239504Y22441D02*
Y26957D01*
X242850Y22441D02*
Y31996D01*
X236157Y22441D02*
Y31996D01*
X229465Y22441D02*
Y31996D01*
X222772Y22441D02*
Y31996D01*
Y73043D02*
Y77559D01*
X219425Y68004D02*
Y77559D01*
X229465Y73043D02*
Y77559D01*
X226118Y68004D02*
Y77559D01*
X236157Y73043D02*
Y77559D01*
X232811Y68004D02*
Y77559D01*
X239500Y68000D02*
X239504Y68004D01*
Y77559D01*
X242850Y73043D02*
Y77559D01*
X249543Y73043D02*
Y77559D01*
D17*
X87299Y56000D02*
D03*
X90701D02*
D03*
Y61000D02*
D03*
X202299Y14500D02*
D03*
X72299Y50000D02*
D03*
D03*
X87299Y61000D02*
D03*
Y66000D02*
D03*
X211799Y14500D02*
D03*
X195201Y44500D02*
D03*
X191799D02*
D03*
X75701Y50000D02*
D03*
X92701Y85500D02*
D03*
X54902Y79500D02*
D03*
Y74000D02*
D03*
X89299Y85500D02*
D03*
X195299Y44500D02*
D03*
X198701Y51800D02*
D03*
X195299D02*
D03*
D03*
X195799Y78500D02*
D03*
X191898Y51800D02*
D03*
X198701Y44500D02*
D03*
X68898Y50000D02*
D03*
X51500Y74000D02*
D03*
Y79500D02*
D03*
X90701Y66000D02*
D03*
X199201Y83500D02*
D03*
X195799D02*
D03*
X205701Y14500D02*
D03*
X215201D02*
D03*
X199201Y78500D02*
D03*
D18*
X74937Y69459D02*
D03*
X71000Y84541D02*
D03*
Y69459D02*
D03*
X67063D02*
D03*
X69032D02*
D03*
X72969Y84541D02*
D03*
X69032D02*
D03*
X67063D02*
D03*
X72969Y69459D02*
D03*
D19*
X24764Y9409D02*
D03*
Y34606D02*
D03*
Y65394D02*
D03*
Y90591D02*
D03*
Y68543D02*
D03*
Y87441D02*
D03*
Y31457D02*
D03*
Y12559D02*
D03*
D20*
X33500Y15441D02*
D03*
Y24780D02*
D03*
Y72441D02*
D03*
Y83559D02*
D03*
Y18000D02*
D03*
Y81000D02*
D03*
Y75000D02*
D03*
Y22220D02*
D03*
D21*
X41000Y16701D02*
D03*
Y81299D02*
D03*
Y74701D02*
D03*
Y23799D02*
D03*
X59000Y60701D02*
D03*
X100000Y66701D02*
D03*
X100500Y80799D02*
D03*
X164500Y31201D02*
D03*
X179000Y78299D02*
D03*
X179500Y22000D02*
D03*
X100000Y63299D02*
D03*
X59000Y57299D02*
D03*
X41000Y27201D02*
D03*
X179500Y18598D02*
D03*
X41000Y84701D02*
D03*
Y71299D02*
D03*
X179000Y81701D02*
D03*
X41000Y13299D02*
D03*
X164500Y27799D02*
D03*
X100500Y84201D02*
D03*
D22*
X58000Y23720D02*
D03*
X52500D02*
D03*
X58000Y34280D02*
D03*
X64500Y57279D02*
D03*
X164500Y64280D02*
D03*
Y18280D02*
D03*
X64500Y60720D02*
D03*
X164500Y67721D02*
D03*
Y21721D02*
D03*
X58000Y37721D02*
D03*
Y20279D02*
D03*
X52500D02*
D03*
D23*
X32721Y37000D02*
D03*
Y63000D02*
D03*
X35280D02*
D03*
Y37000D02*
D03*
D24*
X65697Y29000D02*
D03*
Y38055D02*
D03*
Y19945D02*
D03*
D25*
X90303Y29000D02*
D03*
D26*
X47221Y37000D02*
D03*
X75721Y61000D02*
D03*
X46441Y63000D02*
D03*
X51780Y68500D02*
D03*
Y85500D02*
D03*
X75721Y55500D02*
D03*
X244280Y85000D02*
D03*
X266721D02*
D03*
X257221D02*
D03*
X261779Y13500D02*
D03*
X92721Y80000D02*
D03*
X72280Y55500D02*
D03*
Y61000D02*
D03*
X247721Y85000D02*
D03*
X253780D02*
D03*
X263280D02*
D03*
X265220Y13500D02*
D03*
X89280Y80000D02*
D03*
X55221Y68500D02*
D03*
Y85500D02*
D03*
X43000Y63000D02*
D03*
X43780Y37000D02*
D03*
D27*
X173000Y18130D02*
D03*
Y81870D02*
D03*
Y78130D02*
D03*
Y21870D02*
D03*
D28*
X211945Y22441D02*
D03*
Y77559D02*
D03*
X267063Y22441D02*
D03*
Y77559D02*
D03*
D29*
X233008Y50000D02*
D03*
Y43504D02*
D03*
X239504D02*
D03*
Y50000D02*
D03*
X233008Y56496D02*
D03*
X239504D02*
D03*
X246000Y43504D02*
D03*
Y50000D02*
D03*
D30*
X155650Y83858D02*
D03*
X124350D02*
D03*
X155650Y33858D02*
D03*
X124350D02*
D03*
Y16142D02*
D03*
X155650D02*
D03*
Y66142D02*
D03*
X124350D02*
D03*
D31*
X252890Y22441D02*
D03*
X256236D02*
D03*
X262929Y77559D02*
D03*
X259583D02*
D03*
X256236D02*
D03*
X262929Y22441D02*
D03*
X259583D02*
D03*
X249543D02*
D03*
X246197D02*
D03*
X242850D02*
D03*
X239504D02*
D03*
X236157D02*
D03*
X232811D02*
D03*
X229465D02*
D03*
X226118D02*
D03*
X222772D02*
D03*
X219425D02*
D03*
X216079D02*
D03*
Y77559D02*
D03*
X219425D02*
D03*
X222772D02*
D03*
X226118D02*
D03*
X229465D02*
D03*
X232811D02*
D03*
X236157D02*
D03*
X239504D02*
D03*
X242850D02*
D03*
X246197D02*
D03*
X249543D02*
D03*
X252890D02*
D03*
D32*
X267063Y26575D02*
D03*
Y29921D02*
D03*
Y33268D02*
D03*
Y39961D02*
D03*
Y36614D02*
D03*
Y50000D02*
D03*
Y43307D02*
D03*
Y46654D02*
D03*
Y53347D02*
D03*
Y63386D02*
D03*
Y56693D02*
D03*
Y60039D02*
D03*
Y70079D02*
D03*
Y66732D02*
D03*
Y73425D02*
D03*
X211945Y46654D02*
D03*
Y50000D02*
D03*
Y26575D02*
D03*
Y29921D02*
D03*
Y33268D02*
D03*
Y36614D02*
D03*
Y39961D02*
D03*
Y43307D02*
D03*
Y53347D02*
D03*
Y56693D02*
D03*
Y60039D02*
D03*
Y63386D02*
D03*
Y66732D02*
D03*
Y70079D02*
D03*
Y73425D02*
D03*
D33*
X107258Y76760D02*
D03*
Y62760D02*
D03*
X114742Y80500D02*
D03*
Y66500D02*
D03*
D34*
X78541Y77000D02*
D03*
Y78969D02*
D03*
Y73063D02*
D03*
Y75032D02*
D03*
X63459Y80937D02*
D03*
Y78969D02*
D03*
Y73063D02*
D03*
X78541Y80937D02*
D03*
X63459Y75032D02*
D03*
Y77000D02*
D03*
D35*
X74937Y84541D02*
D03*
D36*
X24764Y19055D02*
D03*
Y22992D02*
D03*
Y84882D02*
D03*
Y82913D02*
D03*
Y80945D02*
D03*
Y78976D02*
D03*
Y77008D02*
D03*
Y75039D02*
D03*
Y73071D02*
D03*
Y71102D02*
D03*
Y15118D02*
D03*
Y17087D02*
D03*
Y21024D02*
D03*
Y24961D02*
D03*
Y26929D02*
D03*
Y28898D02*
D03*
D37*
X107258Y84240D02*
D03*
Y70240D02*
D03*
D51*
X71000Y77000D02*
D03*
D52*
X22500Y5000D02*
D03*
Y39016D02*
D03*
Y60984D02*
D03*
Y95000D02*
D03*
D54*
X6752Y5000D02*
D03*
Y39016D02*
D03*
Y60984D02*
D03*
Y95000D02*
D03*
D59*
X246000Y56496D02*
D03*
D60*
X60500Y76434D02*
X61754D01*
X60500Y75032D02*
X63459D01*
X61754Y76434D02*
X62319Y77000D01*
X63459D01*
X57967Y76434D02*
X60500D01*
X55781Y78620D02*
X57967Y76434D01*
X54902Y79382D02*
Y79500D01*
X55663Y78620D02*
X55781D01*
X54902Y79382D02*
X55663Y78620D01*
X50000Y78000D02*
X51000Y79000D01*
X189604Y47896D02*
X190111Y47388D01*
X187500Y48000D02*
X187604Y47896D01*
X187800Y51800D02*
X191898D01*
X187500Y51500D02*
X187800Y51800D01*
X187604Y47896D02*
X189604D01*
X190111Y46204D02*
Y47388D01*
Y46204D02*
X191898Y44418D01*
Y44300D02*
Y44418D01*
X24764Y19055D02*
X25047Y19338D01*
X33992Y18000D02*
X34380Y18387D01*
X25053Y22703D02*
X27214D01*
X24764Y22992D02*
X25053Y22703D01*
X25047Y19338D02*
X27214D01*
X28551Y18000D01*
X27214Y22703D02*
X30500Y19417D01*
X28551Y18000D02*
X30500D01*
Y19417D01*
Y18000D02*
X32000D01*
X33500D01*
X39363Y18865D02*
X42637D01*
X42875Y18627D01*
X38885Y18387D02*
X39363Y18865D01*
X42875Y18627D02*
X43587D01*
X44114Y18100D01*
X34380Y18387D02*
X38885D01*
X44114Y18100D02*
X44600D01*
X75000Y15484D02*
Y20500D01*
X69298Y9783D02*
X75000Y15484D01*
X79000Y20500D02*
X79034Y20466D01*
Y17534D02*
Y20466D01*
X70701Y9201D02*
X79034Y17534D01*
X69298Y5353D02*
Y9783D01*
X70701Y5353D02*
Y9201D01*
X34733Y20812D02*
X39490D01*
X39730Y21052D01*
X43051D01*
X44600Y22600D01*
X196061Y50469D02*
Y51038D01*
X201466Y47796D02*
X208532D01*
X195299Y51800D02*
X196061Y51038D01*
X209269Y50000D02*
X211945D01*
X208532Y47796D02*
X209819Y46509D01*
X196061Y50469D02*
X197012Y49517D01*
X201147Y48114D02*
X201466Y47796D01*
X201728Y49517D02*
X202047Y49198D01*
X197012Y49517D02*
X201728D01*
X202047Y49198D02*
X208467D01*
X195299Y46647D02*
X196767Y48114D01*
X201147D01*
X208467Y49198D02*
X209269Y50000D01*
X198701Y44500D02*
X199001Y44800D01*
X202100D01*
X57401Y75032D02*
X60500D01*
X56815Y74445D02*
X57401Y75032D01*
X55201Y74000D02*
X55646Y74445D01*
X56815D01*
X33500Y79500D02*
Y81000D01*
Y79500D02*
X34156Y78844D01*
X35156D01*
X35500Y78500D01*
X33584Y75000D02*
X33972Y75388D01*
X31779Y77221D02*
X32991D01*
X33972Y76240D01*
Y75388D02*
Y76240D01*
X33500Y75000D02*
X33584D01*
X31500Y77500D02*
X31779Y77221D01*
X33480Y75020D02*
X33500Y75000D01*
X24783Y75020D02*
X33480D01*
X24764Y75039D02*
X24783Y75020D01*
X29132Y79215D02*
Y80972D01*
X27214Y77297D02*
X29132Y79215D01*
X25053Y77297D02*
X27214D01*
X24764Y77008D02*
X25053Y77297D01*
X29132Y80972D02*
X33472D01*
X24791D02*
X29132D01*
X33472D02*
X33500Y81000D01*
X24764Y80945D02*
X24791Y80972D01*
X21500Y75682D02*
Y78274D01*
Y75682D02*
X21853Y75328D01*
X24475D01*
X24764Y75039D01*
X22019Y78793D02*
X24581D01*
X21500Y78274D02*
X22019Y78793D01*
X24581D02*
X24764Y78976D01*
X48701Y74000D02*
X51500D01*
X49000Y78000D02*
X50000D01*
X211800Y46509D02*
X211945Y46654D01*
X209819Y46509D02*
X211800D01*
X195299Y44300D02*
Y46647D01*
X31237Y22220D02*
X33008D01*
X28497Y24961D02*
X31237Y22220D01*
X24764Y24961D02*
X28497D01*
X24764Y21024D02*
X25047Y20741D01*
X21500Y21500D02*
X21949Y21051D01*
X24736D01*
X24764Y21024D01*
X21500Y21500D02*
Y23858D01*
X22314Y24672D01*
X24475D01*
X24764Y24961D01*
X33500Y22220D02*
X33992D01*
X34380Y21165D02*
X34733Y20812D01*
X34380Y21165D02*
Y21833D01*
X33992Y22220D02*
X34380Y21833D01*
X70701Y5353D02*
X71055Y5000D01*
X75000D01*
X68945D02*
X69298Y5353D01*
X65000Y5000D02*
X68945D01*
X198701Y51800D02*
X199001Y51500D01*
X203000D01*
D61*
X61500Y73000D02*
X61540Y73040D01*
X63436D01*
X63459Y73063D01*
X71000Y69459D02*
X71023Y69436D01*
Y67977D02*
Y69436D01*
X71000Y84541D02*
Y87500D01*
X79444Y81210D02*
X80234Y81999D01*
X81500D01*
X69032Y66531D02*
Y69459D01*
X71023Y67977D02*
X72732Y66268D01*
Y65768D02*
Y66268D01*
Y65768D02*
X73000Y65500D01*
X70000Y88500D02*
X71000Y87500D01*
D62*
X69032Y66531D02*
X69727Y65836D01*
X257221Y84862D02*
X259500Y82583D01*
X257221Y84862D02*
Y85000D01*
X259500Y82000D02*
Y82583D01*
X262929Y77559D02*
Y81466D01*
X259500Y82000D02*
X259672Y81828D01*
X267063Y77559D02*
Y81121D01*
X266356Y81828D02*
X267063Y81121D01*
X259672Y81828D02*
X266356D01*
X244280Y88036D02*
X245000Y88757D01*
X244280Y85000D02*
Y88036D01*
X245000Y88757D02*
Y89000D01*
X259541Y73541D02*
Y77518D01*
X259583Y77559D01*
X259500Y73500D02*
X259541Y73541D01*
X262547Y70079D02*
X267063D01*
X262547Y73425D02*
X267063D01*
X262547Y53347D02*
X267063D01*
X262547Y63386D02*
X267063D01*
X262547Y56693D02*
X267063D01*
X262547Y66732D02*
X267063D01*
X262547Y60039D02*
X267063D01*
X252890Y22441D02*
Y26957D01*
X256236Y22441D02*
Y26957D01*
X262547Y26575D02*
X267063D01*
X262547Y29921D02*
X267063D01*
X262547Y33268D02*
X267063D01*
X262547Y36614D02*
X267063D01*
X262547Y50000D02*
X267063D01*
X262547Y39961D02*
X267063D01*
X262547Y43307D02*
X267063D01*
X262547Y46654D02*
X267063D01*
X267032Y18531D02*
Y22409D01*
X267000Y18500D02*
X267032Y18531D01*
Y22409D02*
X267063Y22441D01*
X256000Y5000D02*
X261779Y10780D01*
X255000Y5000D02*
X256000D01*
X155500Y34008D02*
X155650Y33858D01*
X203000Y22500D02*
X203029Y22470D01*
X211915D01*
X211945Y22441D01*
X170940Y18561D02*
X172372D01*
X172803Y18130D01*
X168501Y21000D02*
X170940Y18561D01*
X172803Y18130D02*
X173000D01*
X168500Y21000D02*
X168501D01*
X164362Y18280D02*
X164500D01*
X161500Y15417D02*
X164362Y18280D01*
X161500Y15000D02*
Y15417D01*
X155500Y34008D02*
Y42500D01*
X164362Y64280D02*
X164500D01*
X162583Y62500D02*
X164362Y64280D01*
X161500Y62500D02*
X162583D01*
X155650Y83858D02*
X157450Y82058D01*
X161442D01*
X162000Y81500D01*
X124350Y83858D02*
X129642D01*
X130000Y83500D01*
X92721Y80000D02*
X95000D01*
X75721Y60862D02*
Y61000D01*
Y60862D02*
X77583Y59000D01*
X78500D01*
X75721Y55362D02*
Y55500D01*
Y55362D02*
X76152Y54931D01*
X76289D01*
X77220Y54000D01*
X78500D01*
X64500Y54500D02*
Y57279D01*
X48000Y68500D02*
X51780D01*
X48500Y85500D02*
X51780D01*
X261779Y10780D02*
Y13500D01*
Y15000D01*
X90701Y60882D02*
Y61000D01*
X93757Y59500D02*
X94000D01*
X91014Y60569D02*
X92688D01*
X93757Y59500D01*
X90701Y60882D02*
X91014Y60569D01*
X93757Y55000D02*
X94000D01*
X91014Y55569D02*
X93188D01*
X90701Y55882D02*
X91014Y55569D01*
X93188D02*
X93757Y55000D01*
X90701Y55882D02*
Y56000D01*
X266721Y85000D02*
Y88480D01*
X265000Y90200D02*
X266721Y88480D01*
X265000Y90200D02*
Y95000D01*
X72289Y50010D02*
X72299Y50000D01*
X72289Y50010D02*
Y55490D01*
X72280Y55500D02*
X72289Y55490D01*
X72280Y55500D02*
Y61000D01*
X71907Y61372D02*
Y61510D01*
X69727Y63690D02*
Y65836D01*
Y63690D02*
X71907Y61510D01*
X81500Y44550D02*
X89000Y52050D01*
X95222D01*
X96950Y53778D01*
X59278Y44550D02*
X81500D01*
X43431Y60397D02*
X59278Y44550D01*
X57862Y37721D02*
X58030Y37888D01*
X57629Y71047D02*
X59376Y69300D01*
X57629Y71047D02*
X59583Y73000D01*
X55360Y68778D02*
X57629Y71047D01*
X55221Y59761D02*
Y68500D01*
X59376Y69300D02*
X64200D01*
X59583Y73000D02*
X61500D01*
X83235Y82000D02*
X85374D01*
X89289Y80010D02*
Y85490D01*
X87072Y80302D02*
X88978D01*
X89280Y80000D01*
X85374Y82000D02*
X87072Y80302D01*
X83234Y81999D02*
X83235Y82000D01*
X81500Y81999D02*
X83234D01*
X58687Y57612D02*
X59000Y57299D01*
X57370Y57612D02*
X58687D01*
X55221Y59761D02*
X57370Y57612D01*
X60000Y50000D02*
X68898D01*
X58030Y37888D02*
X65530D01*
X65697Y38055D01*
X45583Y50000D02*
X57862Y37721D01*
X37500Y50000D02*
X45583D01*
X43000Y63000D02*
X43431Y62569D01*
Y60397D02*
Y62569D01*
X96950Y53778D02*
Y61484D01*
X97069Y61603D01*
X94757Y63915D02*
X97069Y61603D01*
X94757Y63915D02*
Y65000D01*
X57942Y20221D02*
X58000Y20279D01*
X57942Y17685D02*
Y20221D01*
X57000Y16744D02*
X57942Y17685D01*
X57000Y16500D02*
Y16744D01*
X52500Y16500D02*
Y20279D01*
X58167Y20112D02*
X65530D01*
X65697Y19945D01*
X55110Y85610D02*
X55221Y85500D01*
X55110Y85610D02*
Y94890D01*
X55000Y95000D02*
X55110Y94890D01*
X91014Y65569D02*
X94188D01*
X94757Y65000D01*
X90701Y65882D02*
X91014Y65569D01*
X90701Y65882D02*
Y66000D01*
D63*
X239500Y40000D02*
Y43500D01*
X229000Y44000D02*
X232512D01*
X239500Y43500D02*
X239504Y43504D01*
X232512Y44000D02*
X233008Y43504D01*
X239500Y56500D02*
X239504Y56496D01*
X239500Y56500D02*
Y60500D01*
X211370Y76984D02*
X211945Y77559D01*
X246004Y43500D02*
X249500D01*
X246000Y43504D02*
X246004Y43500D01*
X246000Y50000D02*
X249500D01*
X246000Y56496D02*
X249496D01*
X249500Y56500D01*
X205000Y73500D02*
X208484Y76984D01*
X211370D01*
X124350Y33858D02*
Y40150D01*
X124000Y40500D02*
X124350Y40150D01*
X59500Y29000D02*
X65697D01*
X58000Y27500D02*
X59500Y29000D01*
X58000Y23720D02*
Y27500D01*
Y30500D02*
Y34280D01*
Y30500D02*
X59500Y29000D01*
X52645Y23866D02*
Y26145D01*
X52500Y23720D02*
X52645Y23866D01*
X51500Y29000D02*
X55500D01*
X59500D01*
X52645Y26145D02*
X55500Y29000D01*
X24764Y9409D02*
X29909D01*
X30000Y9500D01*
X24764Y34606D02*
X25846D01*
X29000Y37760D01*
Y39000D01*
X90303Y29000D02*
Y29555D01*
X92748Y32000D01*
X97500D01*
X229000Y50000D02*
X233008D01*
X233006Y56498D02*
X233008Y56496D01*
X229000Y56500D02*
X229002Y56498D01*
X233006D01*
X253500Y88892D02*
X253780Y88612D01*
Y85000D02*
Y88612D01*
X253500Y88892D02*
Y89000D01*
X253780Y85000D02*
X253961Y84819D01*
X179181Y78119D02*
Y78236D01*
X181700Y75600D02*
Y75600D01*
X179118Y78299D02*
X179181Y78236D01*
X179000Y78299D02*
X179118D01*
X179181Y78119D02*
X181700Y75600D01*
X247721Y85000D02*
Y85138D01*
X249500Y86917D01*
X263241Y85039D02*
X263280Y85000D01*
X265000Y5000D02*
X265220Y5221D01*
X249500Y86917D02*
Y89000D01*
X263241Y85039D02*
Y87531D01*
X95345Y85155D02*
X95345D01*
X92701Y85469D02*
X92764Y85406D01*
X92701Y85469D02*
Y85500D01*
X95094Y85406D02*
X95345Y85155D01*
X92764Y85406D02*
X95094D01*
X75764Y49819D02*
Y49937D01*
X80000Y47500D02*
X80000Y47500D01*
X75764Y49819D02*
X78082Y47500D01*
X80000D01*
X75701Y50000D02*
X75764Y49937D01*
X265220Y5221D02*
Y13500D01*
Y15000D01*
X255772Y95000D02*
X263241Y87531D01*
X255000Y95000D02*
X255772D01*
X256000D01*
X256024Y77772D02*
X256236Y77559D01*
X256024Y77772D02*
Y79616D01*
X253961Y81679D02*
X256024Y79616D01*
X253961Y81679D02*
Y84819D01*
X255386Y95386D02*
X255772Y95000D01*
X142500Y50000D02*
X142883Y50383D01*
Y54328D01*
X144254Y55700D01*
X152800D01*
X164500Y44000D01*
Y31201D02*
Y44000D01*
Y31201D02*
X169299D01*
X174500Y26000D01*
X179319Y22063D02*
X179382Y22000D01*
X174500Y26000D02*
X177500D01*
X179319Y22063D02*
Y24181D01*
X177500Y26000D02*
X179319Y24181D01*
X179382Y22000D02*
X179500D01*
X52500Y16500D02*
X57000D01*
X48000D02*
X52500D01*
X24583Y68724D02*
X24764Y68543D01*
X24945Y68362D02*
X27503D01*
X28865Y67000D01*
X24764Y68543D02*
X24945Y68362D01*
X28865Y67000D02*
X37934D01*
X39105Y63000D02*
Y65828D01*
Y60500D02*
Y63000D01*
X37934Y67000D02*
X39105Y65828D01*
X38096Y55596D02*
Y59491D01*
X39105Y60500D01*
X37500Y55000D02*
X38096Y55596D01*
X18500Y70000D02*
Y86269D01*
Y70000D02*
X19776Y68724D01*
X24583D01*
X18500Y86269D02*
X19672Y87441D01*
X24764D01*
X39239Y34739D02*
Y37000D01*
X35957Y31457D02*
X39239Y34739D01*
X24764Y31457D02*
X35957D01*
X24721Y31500D02*
X24764Y31457D01*
X19500Y31500D02*
X24721D01*
X16500Y28500D02*
X19500Y31500D01*
X16500Y14500D02*
Y28500D01*
Y14500D02*
X18441Y12559D01*
X24764D01*
D64*
X33500Y24780D02*
X36220D01*
X37000Y24000D01*
X41000Y16701D02*
X41463Y16238D01*
X47221Y36862D02*
Y37000D01*
X49402Y33098D02*
X49500Y33000D01*
X49402Y33098D02*
Y34680D01*
X47221Y36862D02*
X49402Y34680D01*
X32721Y37000D02*
Y42779D01*
X32000Y43500D02*
X32721Y42779D01*
X36205Y15530D02*
X36675Y16000D01*
X37000D01*
X33589Y15530D02*
X36205D01*
X33500Y15441D02*
X33589Y15530D01*
X41000Y23799D02*
X41463Y24262D01*
X33500Y72441D02*
X35941D01*
X36500Y73000D01*
X33500Y83559D02*
X33992D01*
X35933Y85500D01*
X36000D01*
X42046Y81762D02*
X42284Y82000D01*
X41463Y81762D02*
X42046D01*
X41000Y81299D02*
X41463Y81762D01*
X42284Y82000D02*
X48000D01*
X41000Y74701D02*
X41463Y74238D01*
X43262D01*
X44500Y73000D01*
X24764Y65394D02*
X25846D01*
X28740Y62500D01*
X29000D01*
X32721Y59220D02*
Y63000D01*
X32000Y58500D02*
X32721Y59220D01*
X24764Y90591D02*
X29409D01*
X29500Y90500D01*
X46441Y62862D02*
Y63000D01*
X47022Y62281D02*
X47160D01*
X46441Y62862D02*
X47022Y62281D01*
X47160D02*
X50471Y58970D01*
X236259Y46772D02*
X236276D01*
X239504Y50000D01*
X44570Y26264D02*
Y27270D01*
X44800Y27500D01*
X41463Y24262D02*
X42568D01*
X44570Y26264D01*
X44370Y13130D02*
X44600Y12900D01*
X41463Y16238D02*
X42568D01*
X44370Y13130D02*
Y14436D01*
X42568Y16238D02*
X44370Y14436D01*
X35280Y63000D02*
X39105D01*
X43000D01*
X39239Y37000D02*
X43198D01*
X35280D02*
X39239D01*
X40016Y44543D02*
X43780Y40780D01*
X37958Y44543D02*
X40016D01*
X37500Y45000D02*
X37958Y44543D01*
X43780Y37000D02*
Y40780D01*
D65*
X35000Y5000D02*
D03*
X45000Y95000D02*
D03*
X255000Y5000D02*
D03*
Y95000D02*
D03*
X75000Y5000D02*
D03*
X65000D02*
D03*
X55000Y95000D02*
D03*
X35000D02*
D03*
X65000D02*
D03*
X75000D02*
D03*
X85000D02*
D03*
X95000D02*
D03*
X105000D02*
D03*
X115000D02*
D03*
X125000D02*
D03*
X135000D02*
D03*
X145000D02*
D03*
X155000D02*
D03*
X165000D02*
D03*
X175000D02*
D03*
X185000D02*
D03*
X195000D02*
D03*
X205000D02*
D03*
X215000D02*
D03*
X225000D02*
D03*
X235000D02*
D03*
X245000D02*
D03*
X45000Y5000D02*
D03*
X55000D02*
D03*
X85000D02*
D03*
X95000D02*
D03*
X105000D02*
D03*
X115000D02*
D03*
X125000D02*
D03*
X135000D02*
D03*
X145000D02*
D03*
X155000D02*
D03*
X165000D02*
D03*
X175000D02*
D03*
X185000D02*
D03*
X195000D02*
D03*
X205000D02*
D03*
X215000D02*
D03*
X225000D02*
D03*
X235000D02*
D03*
X245000D02*
D03*
D66*
X265000Y95000D02*
D03*
Y5000D02*
D03*
D67*
X137500Y50000D02*
D03*
D68*
X142500D02*
D03*
X37500D02*
D03*
Y45000D02*
D03*
D69*
Y55000D02*
D03*
D70*
X72500Y80000D02*
D03*
X68500Y76000D02*
D03*
Y80000D02*
D03*
X72500Y76000D02*
D03*
X64200Y69300D02*
D03*
X80000Y85000D02*
D03*
X229000Y44000D02*
D03*
X239500Y40000D02*
D03*
X229000Y50000D02*
D03*
X236253Y53280D02*
D03*
X242741Y46723D02*
D03*
X236259Y46772D02*
D03*
X242761Y53233D02*
D03*
X229000Y56500D02*
D03*
X239500Y60500D02*
D03*
X256236Y26957D02*
D03*
X252890D02*
D03*
X262547Y29921D02*
D03*
Y36614D02*
D03*
X249500Y43500D02*
D03*
X262547Y39961D02*
D03*
X249500Y50000D02*
D03*
X262547Y46654D02*
D03*
Y50000D02*
D03*
Y26575D02*
D03*
Y33268D02*
D03*
Y43307D02*
D03*
X249500Y56500D02*
D03*
X262547Y60039D02*
D03*
Y53347D02*
D03*
Y63386D02*
D03*
Y66732D02*
D03*
X259500Y73500D02*
D03*
X262547Y56693D02*
D03*
Y70079D02*
D03*
Y73425D02*
D03*
X259500Y82000D02*
D03*
X245000Y89000D02*
D03*
X267000Y18500D02*
D03*
X203000Y22500D02*
D03*
X168500Y21000D02*
D03*
X161500Y15000D02*
D03*
X155500Y42500D02*
D03*
X205000Y73500D02*
D03*
X161500Y62500D02*
D03*
X162500Y81000D02*
D03*
X130500Y83000D02*
D03*
X96000Y79000D02*
D03*
X79500Y59000D02*
D03*
Y54000D02*
D03*
X64500Y54500D02*
D03*
X73000Y65500D02*
D03*
X48000Y68500D02*
D03*
X47500Y85500D02*
D03*
X69500Y89000D02*
D03*
X124000Y40500D02*
D03*
X117000Y32000D02*
D03*
X102000D02*
D03*
X112000D02*
D03*
X107000D02*
D03*
Y39000D02*
D03*
X112000D02*
D03*
X102000D02*
D03*
X117000D02*
D03*
X97500D02*
D03*
X107000Y45500D02*
D03*
X112000D02*
D03*
X102000D02*
D03*
X117000D02*
D03*
X97500D02*
D03*
X55500Y29000D02*
D03*
X59500D02*
D03*
X51500D02*
D03*
X30000Y9500D02*
D03*
X37000Y24000D02*
D03*
X49500Y33000D02*
D03*
X29000Y40000D02*
D03*
X32000Y43500D02*
D03*
X37000Y16000D02*
D03*
X97500Y32000D02*
D03*
X82000Y17500D02*
D03*
X206500Y45400D02*
D03*
X206600Y51500D02*
D03*
X185500Y54000D02*
D03*
X37000Y74000D02*
D03*
X36000Y85500D02*
D03*
X48000Y82000D02*
D03*
X45000Y72500D02*
D03*
X29000Y62500D02*
D03*
X32000Y58500D02*
D03*
X29500Y90500D02*
D03*
X94000Y59500D02*
D03*
Y55000D02*
D03*
X50500Y59000D02*
D03*
X44800Y27500D02*
D03*
X44600Y12900D02*
D03*
X72000Y17500D02*
D03*
X191000Y66000D02*
D03*
X183500Y47500D02*
D03*
X76000Y88000D02*
D03*
X149000Y64000D02*
D03*
X156000Y61000D02*
D03*
X89000Y71500D02*
D03*
X187500Y48000D02*
D03*
Y51500D02*
D03*
X44600Y18100D02*
D03*
X190500Y71500D02*
D03*
X201000Y64000D02*
D03*
X174500Y61500D02*
D03*
X172000Y58500D02*
D03*
X253500Y89000D02*
D03*
X181700Y75600D02*
D03*
X249500Y89000D02*
D03*
X95500Y84500D02*
D03*
X80000Y47500D02*
D03*
X75000Y20500D02*
D03*
X79000D02*
D03*
X44600Y22600D02*
D03*
X202100Y44800D02*
D03*
X60000Y50000D02*
D03*
X31500Y77500D02*
D03*
X35500Y78500D02*
D03*
X48701Y74000D02*
D03*
X49000Y78000D02*
D03*
X198500Y39500D02*
D03*
X203000Y51500D02*
D03*
X57000Y16500D02*
D03*
X52500D02*
D03*
X48000D02*
D03*
X150000Y52500D02*
D03*
X164500Y59286D02*
D03*
X185000Y67500D02*
D03*
X190000Y75500D02*
D03*
X180500Y42000D02*
D03*
X196500Y27000D02*
D03*
X209000Y33000D02*
D03*
X168500Y77500D02*
D03*
X188000Y39500D02*
D03*
X206000Y40000D02*
D03*
X232757Y27243D02*
D03*
X219500Y27500D02*
D03*
X226000D02*
D03*
X249547Y32000D02*
D03*
X246197Y26957D02*
D03*
X246193Y68000D02*
D03*
X216079Y73043D02*
D03*
X216083Y32000D02*
D03*
X239504Y26957D02*
D03*
X242854Y32000D02*
D03*
X236161D02*
D03*
X229468D02*
D03*
X222776D02*
D03*
X222772Y73043D02*
D03*
X219421Y68000D02*
D03*
X229465Y73043D02*
D03*
X226114Y68000D02*
D03*
X236157Y73043D02*
D03*
X232807Y68000D02*
D03*
X239500D02*
D03*
X242850Y73043D02*
D03*
X249543D02*
D03*
M02*
