G04*
G04 #@! TF.GenerationSoftware,Altium Limited,Altium Designer,25.8.1 (18)*
G04*
G04 Layer_Physical_Order=3*
G04 Layer_Color=32768*
%FSLAX25Y25*%
%MOIN*%
G70*
G04*
G04 #@! TF.SameCoordinates,84CAB14F-A09E-4842-903A-F773CCEDBAE3*
G04*
G04*
G04 #@! TF.FilePolarity,Negative*
G04*
G01*
G75*
%ADD53C,0.06800*%
%ADD72C,0.00010*%
%AMTHOVALD73*
21,1,0.03150,0.08362,0,0,360.0*
1,1,0.08362,-0.01575,0.00000*
1,1,0.08362,0.01575,0.00000*
21,0,0.03150,0.06362,0,0,360.0*
1,0,0.06362,-0.01575,0.00000*
1,0,0.06362,0.01575,0.00000*
4,0,4,-0.00868,-0.00707,-0.03824,-0.03664,-0.05238,-0.02249,-0.02282,0.00707,-0.00868,-0.00707,0.0*
4,0,4,0.02282,-0.00707,0.05238,0.02249,0.03824,0.03664,0.00868,0.00707,0.02282,-0.00707,0.0*
4,0,4,-0.02282,-0.00707,-0.05238,0.02249,-0.03824,0.03664,-0.00868,0.00707,-0.02282,-0.00707,0.0*
4,0,4,0.00868,-0.00707,0.03824,-0.03664,0.05238,-0.02249,0.02282,0.00707,0.00868,-0.00707,0.0*
%
%ADD73THOVALD73*%

G04:AMPARAMS|DCode=74|XSize=100mil|YSize=100mil|CornerRadius=0mil|HoleSize=0mil|Usage=FLASHONLY|Rotation=0.000|XOffset=0mil|YOffset=0mil|HoleType=Round|Shape=Relief|Width=20mil|Gap=10mil|Entries=4|*
%AMTHD74*
7,0,0,0.10000,0.08000,0.02000,45*
%
%ADD74THD74*%
%AMTHOVALD75*
21,1,0.04724,0.08362,0,0,360.0*
1,1,0.08362,-0.02362,0.00000*
1,1,0.08362,0.02362,0.00000*
21,0,0.04724,0.06362,0,0,360.0*
1,0,0.06362,-0.02362,0.00000*
1,0,0.06362,0.02362,0.00000*
4,0,4,-0.01655,-0.00707,-0.04612,-0.03664,-0.06026,-0.02249,-0.03069,0.00707,-0.01655,-0.00707,0.0*
4,0,4,0.03069,-0.00707,0.06026,0.02249,0.04612,0.03664,0.01655,0.00707,0.03069,-0.00707,0.0*
4,0,4,-0.03069,-0.00707,-0.06026,0.02249,-0.04612,0.03664,-0.01655,0.00707,-0.03069,-0.00707,0.0*
4,0,4,0.01655,-0.00707,0.04612,-0.03664,0.06026,-0.02249,0.03069,0.00707,0.01655,-0.00707,0.0*
%
%ADD75THOVALD75*%

%ADD76C,0.08000*%
%ADD77C,0.05200*%
D53*
X137500Y50000D02*
D03*
X142500D02*
D03*
X37500D02*
D03*
Y55000D02*
D03*
Y45000D02*
D03*
D72*
X0Y0D02*
Y100000D01*
X270000D01*
Y0D02*
Y100000D01*
X0Y0D02*
X270000D01*
D73*
X22500Y5000D02*
D03*
Y39016D02*
D03*
Y60984D02*
D03*
Y95000D02*
D03*
D74*
X35000Y5000D02*
D03*
X45000Y95000D02*
D03*
X255000Y5000D02*
D03*
X265000Y95000D02*
D03*
D75*
X6752Y5000D02*
D03*
Y39016D02*
D03*
Y60984D02*
D03*
Y95000D02*
D03*
D76*
X265000Y5000D02*
D03*
X255000Y95000D02*
D03*
X75000Y5000D02*
D03*
X65000D02*
D03*
X55000Y95000D02*
D03*
X35000D02*
D03*
X65000D02*
D03*
X75000D02*
D03*
X85000D02*
D03*
X95000D02*
D03*
X105000D02*
D03*
X115000D02*
D03*
X125000D02*
D03*
X135000D02*
D03*
X145000D02*
D03*
X155000D02*
D03*
X165000D02*
D03*
X175000D02*
D03*
X185000D02*
D03*
X195000D02*
D03*
X205000D02*
D03*
X215000D02*
D03*
X225000D02*
D03*
X235000D02*
D03*
X245000D02*
D03*
X45000Y5000D02*
D03*
X55000D02*
D03*
X85000D02*
D03*
X95000D02*
D03*
X105000D02*
D03*
X115000D02*
D03*
X125000D02*
D03*
X135000D02*
D03*
X145000D02*
D03*
X155000D02*
D03*
X165000D02*
D03*
X175000D02*
D03*
X185000D02*
D03*
X195000D02*
D03*
X205000D02*
D03*
X215000D02*
D03*
X225000D02*
D03*
X235000D02*
D03*
X245000D02*
D03*
D77*
X64200Y69300D02*
D03*
X80000Y85000D02*
D03*
X76000Y88000D02*
D03*
X149000Y64000D02*
D03*
X156000Y61000D02*
D03*
X89000Y71500D02*
D03*
X187500Y48000D02*
D03*
Y51500D02*
D03*
X44600Y18100D02*
D03*
X190500Y71500D02*
D03*
X201000Y64000D02*
D03*
X174500Y61500D02*
D03*
X172000Y58500D02*
D03*
X253500Y89000D02*
D03*
X181700Y75600D02*
D03*
X249500Y89000D02*
D03*
X95500Y84500D02*
D03*
X80000Y47500D02*
D03*
X75000Y20500D02*
D03*
X79000D02*
D03*
X44600Y22600D02*
D03*
X202100Y44800D02*
D03*
X60000Y50000D02*
D03*
X31500Y77500D02*
D03*
X35500Y78500D02*
D03*
X48701Y74000D02*
D03*
X49000Y78000D02*
D03*
X198500Y39500D02*
D03*
X203000Y51500D02*
D03*
X57000Y16500D02*
D03*
X52500D02*
D03*
X48000D02*
D03*
X150000Y52500D02*
D03*
X164500Y59286D02*
D03*
X185000Y67500D02*
D03*
X190000Y75500D02*
D03*
X180500Y42000D02*
D03*
X196500Y27000D02*
D03*
X209000Y33000D02*
D03*
X168500Y77500D02*
D03*
X188000Y39500D02*
D03*
X206000Y40000D02*
D03*
X232757Y27243D02*
D03*
X219500Y27500D02*
D03*
X226000D02*
D03*
X249547Y32000D02*
D03*
X246197Y26957D02*
D03*
X246193Y68000D02*
D03*
X216079Y73043D02*
D03*
X216083Y32000D02*
D03*
X239504Y26957D02*
D03*
X242854Y32000D02*
D03*
X236161D02*
D03*
X229468D02*
D03*
X222776D02*
D03*
X222772Y73043D02*
D03*
X219421Y68000D02*
D03*
X229465Y73043D02*
D03*
X226114Y68000D02*
D03*
X236157Y73043D02*
D03*
X232807Y68000D02*
D03*
X239500D02*
D03*
X242850Y73043D02*
D03*
X249543D02*
D03*
M02*
