G04*
G04 #@! TF.GenerationSoftware,Altium Limited,Altium Designer,25.8.1 (18)*
G04*
G04 Layer_Color=65535*
%FSLAX25Y25*%
%MOIN*%
G70*
G04*
G04 #@! TF.SameCoordinates,84CAB14F-A09E-4842-903A-F773CCEDBAE3*
G04*
G04*
G04 #@! TF.FilePolarity,Positive*
G04*
G01*
G75*
%ADD10C,0.01000*%
%ADD11C,0.00984*%
%ADD12C,0.00600*%
%ADD13C,0.00787*%
%ADD14C,0.00500*%
%ADD15R,0.05600X0.01400*%
D10*
X152000Y10500D02*
G03*
X152000Y10500I-500J0D01*
G01*
X156500Y59000D02*
G03*
X156500Y59000I-500J0D01*
G01*
D11*
X78992Y88600D02*
G03*
X78992Y88600I-492J0D01*
G01*
X29783Y90571D02*
G03*
X29783Y90571I-492J0D01*
G01*
Y34587D02*
G03*
X29783Y34587I-492J0D01*
G01*
X66189Y41992D02*
G03*
X66189Y41992I-492J0D01*
G01*
D12*
X189700Y42300D02*
Y46700D01*
Y42300D02*
X197400D01*
X189700Y46700D02*
X197400D01*
X152300Y19967D02*
Y30033D01*
X128360Y12700D02*
X151640D01*
X127700Y19967D02*
Y30033D01*
X128360Y37300D02*
X151640D01*
X74900Y9300D02*
Y12300D01*
X124700Y9500D02*
Y12500D01*
X174800Y9300D02*
Y12300D01*
X224900Y9100D02*
Y12100D01*
X74949Y87851D02*
Y90851D01*
X125000Y87500D02*
Y90500D01*
X175000Y87500D02*
Y90500D01*
X224500Y87000D02*
Y90000D01*
X133500Y45750D02*
Y54250D01*
X146500D01*
X133500Y45750D02*
X146500D01*
Y54250D01*
X102200Y61100D02*
Y68800D01*
X97800Y61100D02*
X102200D01*
X97800D02*
Y68800D01*
X102200D01*
X43200Y21600D02*
Y29300D01*
X38800Y21600D02*
X43200D01*
X38800D02*
Y29300D01*
X43200D01*
X193100Y49600D02*
X200800D01*
X193100Y54000D02*
X200800D01*
Y49600D02*
Y54000D01*
X87100Y83300D02*
X94800D01*
X87100D02*
Y87700D01*
X94800D01*
Y83300D02*
Y87700D01*
X86800Y77600D02*
X95200D01*
X86800D02*
Y82300D01*
X95200D01*
Y77600D02*
Y82300D01*
X166900Y15800D02*
Y24200D01*
X162200Y15800D02*
X166900D01*
X162200D02*
Y24200D01*
X166900D01*
X177300Y16499D02*
Y24199D01*
X181700D01*
Y16499D02*
Y24199D01*
X177300Y16499D02*
X181700D01*
X259300Y15900D02*
X267700D01*
Y11200D02*
Y15900D01*
X259300Y11200D02*
X267700D01*
X259300D02*
Y15900D01*
X251300Y82600D02*
X259700D01*
X251300D02*
Y87300D01*
X259700D01*
Y82600D02*
Y87300D01*
X189798Y49600D02*
Y54000D01*
Y49600D02*
X197498D01*
X189798Y54000D02*
X197498D01*
X200800Y42300D02*
Y46700D01*
X193100D02*
X200800D01*
X193100Y42300D02*
X200800D01*
X78200Y58600D02*
Y63300D01*
X69800D02*
X78200D01*
X69800Y58600D02*
Y63300D01*
Y58600D02*
X78200D01*
X77800Y47800D02*
Y52200D01*
X70100D02*
X77800D01*
X70100Y47800D02*
X77800D01*
X66798D02*
Y52200D01*
Y47800D02*
X74498D01*
X66798Y52200D02*
X74498D01*
X78200Y53100D02*
Y57800D01*
X69800D02*
X78200D01*
X69800Y53100D02*
Y57800D01*
Y53100D02*
X78200D01*
X49401Y71800D02*
Y76200D01*
Y71800D02*
X57101D01*
Y76200D01*
X49401D02*
X57101D01*
X38800Y86800D02*
X43200D01*
X38800Y79100D02*
Y86800D01*
Y79100D02*
X43200D01*
Y86800D01*
X38800Y69200D02*
X43200D01*
Y76900D01*
X38800D02*
X43200D01*
X38800Y69200D02*
Y76900D01*
X152300Y69967D02*
Y80033D01*
X128360Y62700D02*
X151640D01*
X127700Y69967D02*
Y80033D01*
X128360Y87300D02*
X151640D01*
X33250Y59000D02*
X41750D01*
Y41000D02*
Y59000D01*
X33250Y41000D02*
X41750D01*
X33250D02*
Y59000D01*
X176800Y83800D02*
X181200D01*
X176800Y76100D02*
Y83800D01*
Y76100D02*
X181200D01*
Y83800D01*
X49401Y77300D02*
Y81700D01*
Y77300D02*
X57101D01*
Y81700D01*
X49401D02*
X57101D01*
X56800Y55200D02*
X61200D01*
Y62900D01*
X56800D02*
X61200D01*
X56800Y55200D02*
Y62900D01*
X85200Y53800D02*
Y58200D01*
Y53800D02*
X92900D01*
Y58200D01*
X85200D02*
X92900D01*
X85200Y63800D02*
Y68200D01*
Y63800D02*
X92900D01*
Y68200D01*
X85200D02*
X92900D01*
X92800Y58800D02*
Y63200D01*
X85100D02*
X92800D01*
X85100Y58800D02*
Y63200D01*
Y58800D02*
X92800D01*
X38800Y11200D02*
X43200D01*
Y18900D01*
X38800D02*
X43200D01*
X38800Y11200D02*
Y18900D01*
X162300Y25700D02*
X166700D01*
Y33400D01*
X162300D02*
X166700D01*
X162300Y25700D02*
Y33400D01*
X193700Y81300D02*
Y85700D01*
Y81300D02*
X201400D01*
Y85700D01*
X193700D02*
X201400D01*
X207800Y12300D02*
Y16700D01*
X200100D02*
X207800D01*
X200100Y12300D02*
Y16700D01*
Y12300D02*
X207800D01*
X98300Y78700D02*
X102700D01*
Y86400D01*
X98300D02*
X102700D01*
X98300Y78700D02*
Y86400D01*
X217300Y12300D02*
Y16700D01*
X209600D02*
X217300D01*
X209600Y12300D02*
Y16700D01*
Y12300D02*
X217300D01*
X193700Y76300D02*
Y80700D01*
Y76300D02*
X201400D01*
Y80700D01*
X193700D02*
X201400D01*
X48921Y60600D02*
Y65300D01*
X40521D02*
X48921D01*
X40521Y60600D02*
Y65300D01*
Y60600D02*
X48921D01*
X62100Y54800D02*
X66800D01*
Y63200D01*
X62100D02*
X66800D01*
X62100Y54800D02*
Y63200D01*
X49300Y66200D02*
Y70900D01*
Y66200D02*
X57700D01*
Y70900D01*
X49300D02*
X57700D01*
X269200Y82600D02*
Y87300D01*
X260800D02*
X269200D01*
X260800Y82600D02*
Y87300D01*
Y82600D02*
X269200D01*
X49700Y34600D02*
Y39300D01*
X41300D02*
X49700D01*
X41300Y34600D02*
Y39300D01*
Y34600D02*
X49700D01*
X49300Y83200D02*
Y87900D01*
Y83200D02*
X57700D01*
Y87900D01*
X49300D02*
X57700D01*
X55600Y31800D02*
X60300D01*
Y40200D01*
X55600D02*
X60300D01*
X55600Y31800D02*
Y40200D01*
X55700Y26200D02*
X60400D01*
X55700Y17800D02*
Y26200D01*
Y17800D02*
X60400D01*
Y26200D01*
X50200D02*
X54900D01*
X50200Y17800D02*
Y26200D01*
Y17800D02*
X54900D01*
Y26200D01*
X241800Y82700D02*
Y87400D01*
Y82700D02*
X250200D01*
Y87400D01*
X241800D02*
X250200D01*
X162100Y61800D02*
X166800D01*
Y70200D01*
X162100D02*
X166800D01*
X162100Y61800D02*
Y70200D01*
X170500Y85100D02*
X175500D01*
X170500Y75700D02*
Y85100D01*
Y75700D02*
X175500D01*
Y85100D01*
X170500Y14900D02*
Y24300D01*
X175500D01*
Y14900D02*
Y24300D01*
X170500Y14900D02*
X175500D01*
X30900Y60700D02*
Y65300D01*
Y60700D02*
X37100D01*
Y65300D01*
X30900D02*
X37100D01*
X31200Y85379D02*
X35800D01*
X31200Y79180D02*
Y85379D01*
Y79180D02*
X35800D01*
Y85379D01*
X31200Y70621D02*
X35800D01*
Y76820D01*
X31200D02*
X35800D01*
X31200Y70621D02*
Y76820D01*
X30900Y34700D02*
Y39300D01*
Y34700D02*
X37100D01*
Y39300D01*
X30900D02*
X37100D01*
X31200Y26600D02*
X35800D01*
X31200Y20400D02*
Y26600D01*
Y20400D02*
X35800D01*
Y26600D01*
X31200Y13621D02*
X35800D01*
Y19820D01*
X31200D02*
X35800D01*
X31200Y13621D02*
Y19820D01*
X18600Y57599D02*
Y54266D01*
X19266Y53600D01*
X20599D01*
X21266Y54266D01*
Y57599D01*
X25264Y56932D02*
X24598Y57599D01*
X23265D01*
X22599Y56932D01*
Y56266D01*
X23265Y55599D01*
X24598D01*
X25264Y54933D01*
Y54266D01*
X24598Y53600D01*
X23265D01*
X22599Y54266D01*
X26597Y57599D02*
Y53600D01*
X28597D01*
X29263Y54266D01*
Y54933D01*
X28597Y55599D01*
X26597D01*
X28597D01*
X29263Y56266D01*
Y56932D01*
X28597Y57599D01*
X26597D01*
X30596Y53600D02*
X31929D01*
X31263D01*
Y57599D01*
X30596Y56932D01*
X234766Y90099D02*
X233433D01*
X234099D01*
Y86766D01*
X233433Y86100D01*
X232766D01*
X232100Y86766D01*
X236099Y86100D02*
X237432D01*
X236765D01*
Y90099D01*
X236099Y89432D01*
X169100Y72099D02*
Y68766D01*
X169766Y68100D01*
X171099D01*
X171766Y68766D01*
Y72099D01*
X175765Y71432D02*
X175098Y72099D01*
X173765D01*
X173099Y71432D01*
Y70766D01*
X173765Y70099D01*
X175098D01*
X175765Y69433D01*
Y68766D01*
X175098Y68100D01*
X173765D01*
X173099Y68766D01*
X179763Y72099D02*
X177097D01*
Y68100D01*
X179763D01*
X177097Y70099D02*
X178430D01*
X181096Y68100D02*
Y72099D01*
X183096D01*
X183762Y71432D01*
Y70099D01*
X183096Y69433D01*
X181096D01*
X182429D02*
X183762Y68100D01*
X169600Y26600D02*
Y30599D01*
X171599D01*
X172266Y29932D01*
Y28599D01*
X171599Y27933D01*
X169600D01*
X175598Y30599D02*
X174265D01*
X173599Y29932D01*
Y27266D01*
X174265Y26600D01*
X175598D01*
X176265Y27266D01*
Y29932D01*
X175598Y30599D01*
X177597D02*
Y26600D01*
X178930Y27933D01*
X180263Y26600D01*
Y30599D01*
X184262D02*
X181596D01*
Y26600D01*
X184262D01*
X181596Y28599D02*
X182929D01*
X185595Y26600D02*
Y30599D01*
X187594D01*
X188261Y29932D01*
Y28599D01*
X187594Y27933D01*
X185595D01*
X186928D02*
X188261Y26600D01*
X122600Y60599D02*
Y56600D01*
X124599D01*
X125266Y57266D01*
Y57933D01*
X124599Y58599D01*
X122600D01*
X124599D01*
X125266Y59266D01*
Y59932D01*
X124599Y60599D01*
X122600D01*
X128598D02*
X127265D01*
X126599Y59932D01*
Y57266D01*
X127265Y56600D01*
X128598D01*
X129264Y57266D01*
Y59932D01*
X128598Y60599D01*
X132597D02*
X131264D01*
X130597Y59932D01*
Y57266D01*
X131264Y56600D01*
X132597D01*
X133263Y57266D01*
Y59932D01*
X132597Y60599D01*
X134596D02*
X137262D01*
X135929D01*
Y56600D01*
X138595D02*
X141261Y59266D01*
X142594Y60599D02*
Y57266D01*
X143260Y56600D01*
X144593D01*
X145259Y57266D01*
Y60599D01*
X149258Y59932D02*
X148592Y60599D01*
X147259D01*
X146592Y59932D01*
Y59266D01*
X147259Y58599D01*
X148592D01*
X149258Y57933D01*
Y57266D01*
X148592Y56600D01*
X147259D01*
X146592Y57266D01*
X150591Y56600D02*
Y60599D01*
X152590D01*
X153257Y59932D01*
Y58599D01*
X152590Y57933D01*
X150591D01*
X151924D02*
X153257Y56600D01*
X129100Y38600D02*
Y42599D01*
X131099D01*
X131766Y41932D01*
Y40599D01*
X131099Y39933D01*
X129100D01*
X130433D02*
X131766Y38600D01*
X135765Y42599D02*
X133099D01*
Y38600D01*
X135765D01*
X133099Y40599D02*
X134432D01*
X139763Y41932D02*
X139097Y42599D01*
X137764D01*
X137097Y41932D01*
Y41266D01*
X137764Y40599D01*
X139097D01*
X139763Y39933D01*
Y39266D01*
X139097Y38600D01*
X137764D01*
X137097Y39266D01*
X143762Y42599D02*
X141096D01*
Y38600D01*
X143762D01*
X141096Y40599D02*
X142429D01*
X145095Y42599D02*
X147761D01*
X146428D01*
Y38600D01*
X148600Y51432D02*
X149267Y52099D01*
X150599D01*
X151266Y51432D01*
Y50766D01*
X150599Y50099D01*
X149933D01*
X150599D01*
X151266Y49433D01*
Y48766D01*
X150599Y48100D01*
X149267D01*
X148600Y48766D01*
X152599Y52099D02*
Y49433D01*
X153932Y48100D01*
X155264Y49433D01*
Y52099D01*
X156597Y51432D02*
X157264Y52099D01*
X158597D01*
X159263Y51432D01*
Y50766D01*
X158597Y50099D01*
X157930D01*
X158597D01*
X159263Y49433D01*
Y48766D01*
X158597Y48100D01*
X157264D01*
X156597Y48766D01*
X121100Y48100D02*
Y52099D01*
X123099D01*
X123766Y51432D01*
Y50099D01*
X123099Y49433D01*
X121100D01*
X122433D02*
X123766Y48100D01*
X127764Y52099D02*
X125099D01*
Y48100D01*
X127764D01*
X125099Y50099D02*
X126432D01*
X131763Y51432D02*
X131097Y52099D01*
X129764D01*
X129097Y51432D01*
Y48766D01*
X129764Y48100D01*
X131097D01*
X131763Y48766D01*
Y50099D01*
X130430D01*
X16600Y46599D02*
Y43266D01*
X17266Y42600D01*
X18599D01*
X19266Y43266D01*
Y46599D01*
X23265Y45932D02*
X22598Y46599D01*
X21265D01*
X20599Y45932D01*
Y45266D01*
X21265Y44599D01*
X22598D01*
X23265Y43933D01*
Y43266D01*
X22598Y42600D01*
X21265D01*
X20599Y43266D01*
X24597Y46599D02*
Y42600D01*
X26597D01*
X27263Y43266D01*
Y43933D01*
X26597Y44599D01*
X24597D01*
X26597D01*
X27263Y45266D01*
Y45932D01*
X26597Y46599D01*
X24597D01*
X31262Y42600D02*
X28596D01*
X31262Y45266D01*
Y45932D01*
X30595Y46599D01*
X29263D01*
X28596Y45932D01*
X19600Y50099D02*
X22266D01*
X20933Y51432D02*
Y48766D01*
X26265Y52099D02*
X23599D01*
Y50099D01*
X24932Y50766D01*
X25598D01*
X26265Y50099D01*
Y48766D01*
X25598Y48100D01*
X24265D01*
X23599Y48766D01*
X27597Y52099D02*
Y49433D01*
X28930Y48100D01*
X30263Y49433D01*
Y52099D01*
X1600Y57599D02*
Y54266D01*
X2266Y53600D01*
X3599D01*
X4266Y54266D01*
Y57599D01*
X5599Y53600D02*
Y56266D01*
X6932Y57599D01*
X8264Y56266D01*
Y53600D01*
Y55599D01*
X5599D01*
X9597Y53600D02*
Y57599D01*
X11597D01*
X12263Y56932D01*
Y55599D01*
X11597Y54933D01*
X9597D01*
X10930D02*
X12263Y53600D01*
X13596Y57599D02*
X16262D01*
X14929D01*
Y53600D01*
X4766Y46599D02*
X2100D01*
Y42600D01*
X4766D01*
X2100Y44599D02*
X3433D01*
X8765Y45932D02*
X8098Y46599D01*
X6765D01*
X6099Y45932D01*
Y45266D01*
X6765Y44599D01*
X8098D01*
X8765Y43933D01*
Y43266D01*
X8098Y42600D01*
X6765D01*
X6099Y43266D01*
X10097Y42600D02*
Y46599D01*
X12097D01*
X12763Y45932D01*
Y44599D01*
X12097Y43933D01*
X10097D01*
X235066Y14199D02*
X233733D01*
X234399D01*
Y10866D01*
X233733Y10200D01*
X233066D01*
X232400Y10866D01*
X239065Y10200D02*
X236399D01*
X239065Y12866D01*
Y13532D01*
X238398Y14199D01*
X237065D01*
X236399Y13532D01*
X43600Y54100D02*
X44933D01*
X44266D01*
Y58099D01*
X43600Y57432D01*
D13*
X63126Y69126D02*
Y71095D01*
Y69126D02*
X65095D01*
X78874D02*
Y71095D01*
X76906Y69126D02*
X78874D01*
X63126Y82906D02*
Y84874D01*
X65095D01*
X78874Y82906D02*
Y84874D01*
X76906D02*
X78874D01*
X113559Y83354D02*
Y86209D01*
X111000D02*
X113559D01*
Y74791D02*
Y77646D01*
X111000Y74791D02*
X113559D01*
X12559Y95984D02*
X17480D01*
X-1909D02*
X945D01*
X-1909Y60000D02*
Y95984D01*
X12559Y60000D02*
X17480D01*
X-1909D02*
X945D01*
X-1909Y4016D02*
X945D01*
X12559D02*
X17480D01*
X-1909D02*
Y40000D01*
X945D01*
X12559D02*
X17480D01*
X111000Y60791D02*
X113559D01*
Y63646D01*
X111000Y72209D02*
X113559D01*
Y69354D02*
Y72209D01*
X70323Y15811D02*
X85677D01*
X70323Y42189D02*
X85677D01*
Y15811D02*
Y42189D01*
X70323Y15811D02*
Y42189D01*
D14*
X269917Y80315D02*
X289799D01*
X209090Y19685D02*
Y80315D01*
X269917Y19685D02*
X289799D01*
Y80315D01*
D15*
X173000Y84700D02*
D03*
Y15300D02*
D03*
M02*
