G04*
G04 #@! TF.GenerationSoftware,Altium Limited,Altium Designer,25.8.1 (18)*
G04*
G04 Layer_Physical_Order=2*
G04 Layer_Color=36540*
%FSLAX25Y25*%
%MOIN*%
G70*
G04*
G04 #@! TF.SameCoordinates,84CAB14F-A09E-4842-903A-F773CCEDBAE3*
G04*
G04*
G04 #@! TF.FilePolarity,Positive*
G04*
G01*
G75*
G04:AMPARAMS|DCode=52|XSize=39.37mil|YSize=70.87mil|CornerRadius=19.68mil|HoleSize=0mil|Usage=FLASHONLY|Rotation=270.000|XOffset=0mil|YOffset=0mil|HoleType=Round|Shape=RoundedRectangle|*
%AMROUNDEDRECTD52*
21,1,0.03937,0.03150,0,0,270.0*
21,1,0.00000,0.07087,0,0,270.0*
1,1,0.03937,-0.01575,0.00000*
1,1,0.03937,-0.01575,0.00000*
1,1,0.03937,0.01575,0.00000*
1,1,0.03937,0.01575,0.00000*
%
%ADD52ROUNDEDRECTD52*%
G04:AMPARAMS|DCode=54|XSize=39.37mil|YSize=86.61mil|CornerRadius=19.68mil|HoleSize=0mil|Usage=FLASHONLY|Rotation=270.000|XOffset=0mil|YOffset=0mil|HoleType=Round|Shape=RoundedRectangle|*
%AMROUNDEDRECTD54*
21,1,0.03937,0.04724,0,0,270.0*
21,1,0.00000,0.08661,0,0,270.0*
1,1,0.03937,-0.02362,0.00000*
1,1,0.03937,-0.02362,0.00000*
1,1,0.03937,0.02362,0.00000*
1,1,0.03937,0.02362,0.00000*
%
%ADD54ROUNDEDRECTD54*%
%ADD63C,0.02000*%
%ADD65C,0.06400*%
%ADD66R,0.06400X0.06400*%
%ADD67R,0.04000X0.04000*%
%ADD68C,0.04000*%
%ADD69R,0.04000X0.04000*%
%ADD70C,0.02400*%
%ADD71C,0.04000*%
G36*
X268500Y91820D02*
X261820D01*
Y98500D01*
X268500D01*
Y91820D01*
D02*
G37*
G36*
X91960Y97900D02*
X91639Y97579D01*
X91086Y96621D01*
X90800Y95553D01*
Y94447D01*
X91086Y93379D01*
X91639Y92421D01*
X92421Y91639D01*
X93379Y91086D01*
X94447Y90800D01*
X95553D01*
X96621Y91086D01*
X97579Y91639D01*
X97880Y91941D01*
X98480Y91692D01*
Y87526D01*
X95500D01*
X94717Y87423D01*
X93987Y87120D01*
X93360Y86640D01*
X81560Y74840D01*
X81080Y74213D01*
X80777Y73483D01*
X80674Y72700D01*
Y53514D01*
X77860Y50700D01*
X77380Y50073D01*
X77077Y49343D01*
X76974Y48560D01*
Y47500D01*
X77077Y46717D01*
X77380Y45987D01*
X77860Y45360D01*
X78487Y44879D01*
X79217Y44577D01*
X80000Y44474D01*
X80783Y44577D01*
X81513Y44879D01*
X82140Y45360D01*
X82621Y45987D01*
X82923Y46717D01*
X82997Y47278D01*
X85840Y50121D01*
X86321Y50747D01*
X86623Y51477D01*
X86726Y52260D01*
Y69814D01*
X87326Y70063D01*
X87754Y69635D01*
X88562Y69300D01*
X89438D01*
X90246Y69635D01*
X90865Y70254D01*
X91200Y71062D01*
Y71938D01*
X90865Y72746D01*
X90246Y73365D01*
X89714Y73586D01*
X89534Y74254D01*
X96753Y81474D01*
X98480D01*
Y81000D01*
X98558Y80610D01*
X98779Y80279D01*
X99110Y80058D01*
X99500Y79980D01*
X119980D01*
Y66000D01*
X120058Y65610D01*
X120279Y65279D01*
X120610Y65058D01*
X121000Y64980D01*
X134578D01*
X139474Y60084D01*
Y53000D01*
X137697D01*
X137500Y53026D01*
X133000D01*
X132217Y52923D01*
X131487Y52621D01*
X130860Y52140D01*
X127860Y49140D01*
X127380Y48513D01*
X127077Y47783D01*
X126974Y47000D01*
Y40314D01*
X102686Y16026D01*
X70020D01*
Y22500D01*
X69942Y22890D01*
X69721Y23221D01*
X69390Y23442D01*
X69000Y23520D01*
X46600D01*
X46400Y23480D01*
X46295Y23733D01*
X45733Y24295D01*
X44998Y24600D01*
X44202D01*
X43467Y24295D01*
X42904Y23733D01*
X42600Y22998D01*
Y22202D01*
X42904Y21467D01*
X43467Y20904D01*
X44071Y20654D01*
Y20046D01*
X43467Y19795D01*
X42904Y19233D01*
X42600Y18498D01*
Y17702D01*
X42904Y16967D01*
X43467Y16405D01*
X44202Y16100D01*
X44998D01*
X45081Y16135D01*
X45580Y15801D01*
Y14000D01*
X45658Y13610D01*
X45879Y13279D01*
X46210Y13058D01*
X46600Y12980D01*
X56240D01*
X58360Y10860D01*
X58987Y10379D01*
X59717Y10077D01*
X60500Y9974D01*
X60500Y9974D01*
X103940D01*
X104723Y10077D01*
X105453Y10379D01*
X106079Y10860D01*
X132140Y36921D01*
X132140Y36921D01*
X132621Y37547D01*
X132923Y38277D01*
X133026Y39060D01*
Y45747D01*
X134253Y46974D01*
X137500D01*
X137697Y47000D01*
X140401D01*
X140500Y46980D01*
X142452D01*
X142500Y46974D01*
X142548Y46980D01*
X146500D01*
X146890Y47058D01*
X147221Y47279D01*
X147442Y47610D01*
X147520Y48000D01*
Y51171D01*
X148120Y51291D01*
X148135Y51254D01*
X148754Y50635D01*
X149562Y50300D01*
X150438D01*
X151246Y50635D01*
X151865Y51254D01*
X152200Y52062D01*
Y52938D01*
X151865Y53746D01*
X151246Y54365D01*
X150438Y54700D01*
X149562D01*
X148754Y54365D01*
X148135Y53746D01*
X148120Y53709D01*
X147520Y53829D01*
Y61585D01*
X148120Y61983D01*
X148562Y61800D01*
X149438D01*
X150246Y62135D01*
X150865Y62754D01*
X151200Y63562D01*
Y64438D01*
X150865Y65246D01*
X150246Y65865D01*
X149438Y66200D01*
X149426D01*
X149196Y66754D01*
X151922Y69480D01*
X182000D01*
X182390Y69558D01*
X182721Y69779D01*
X187478Y74536D01*
X188066Y74419D01*
X188135Y74254D01*
X188754Y73635D01*
X188839Y72950D01*
X188635Y72746D01*
X188300Y71938D01*
Y71062D01*
X188635Y70254D01*
X189254Y69635D01*
X190062Y69300D01*
X190938D01*
X191746Y69635D01*
X192365Y70254D01*
X192700Y71062D01*
Y71938D01*
X192365Y72746D01*
X191746Y73365D01*
X191661Y74050D01*
X191865Y74254D01*
X192200Y75062D01*
Y75938D01*
X191865Y76746D01*
X191731Y76880D01*
X191979Y77480D01*
X209500D01*
X209890Y77558D01*
X210221Y77779D01*
X210922Y78480D01*
X250078D01*
X250480Y78078D01*
Y75576D01*
X249981Y75243D01*
X249981Y75243D01*
X249106D01*
X248297Y74908D01*
X247678Y74290D01*
X247343Y73481D01*
Y72606D01*
X247678Y71797D01*
X248297Y71178D01*
X249106Y70843D01*
X249981D01*
X249981Y70844D01*
X250480Y70510D01*
Y57420D01*
X250558Y57030D01*
X250680Y56735D01*
Y56265D01*
X250558Y55970D01*
X250480Y55580D01*
Y50920D01*
X250558Y50530D01*
X250680Y50235D01*
Y49765D01*
X250558Y49470D01*
X250480Y49080D01*
Y44420D01*
X250558Y44030D01*
X250680Y43735D01*
Y43265D01*
X250558Y42970D01*
X250480Y42580D01*
Y34531D01*
X249985Y34200D01*
X249110D01*
X248301Y33865D01*
X247682Y33246D01*
X247347Y32438D01*
Y31562D01*
X247682Y30754D01*
X248301Y30135D01*
X249110Y29800D01*
X249985D01*
X250397Y29524D01*
X250491Y29360D01*
X250500Y29313D01*
Y29213D01*
X250538Y29120D01*
X250558Y29022D01*
X250614Y28938D01*
X250652Y28845D01*
X250723Y28774D01*
X250779Y28691D01*
X250863Y28635D01*
X250934Y28564D01*
X251534Y28163D01*
X251626Y28125D01*
X251710Y28069D01*
X251808Y28049D01*
X251901Y28011D01*
X252002D01*
X252100Y27991D01*
X252199Y28011D01*
X252299D01*
X252392Y28049D01*
X252490Y28069D01*
X252655Y28137D01*
X253125D01*
X253558Y27957D01*
X253842Y27674D01*
X254173Y27453D01*
X254563Y27375D01*
X254953Y27453D01*
X255284Y27674D01*
X255568Y27957D01*
X256001Y28137D01*
X256471D01*
X256905Y27957D01*
X257237Y27625D01*
X257417Y27191D01*
Y26722D01*
X257237Y26288D01*
X256905Y25956D01*
X256471Y25776D01*
X256001D01*
X255568Y25956D01*
X255284Y26240D01*
X254953Y26461D01*
X254563Y26538D01*
X254173Y26461D01*
X253842Y26240D01*
X253842Y26240D01*
X253558Y25956D01*
X253125Y25776D01*
X252655D01*
X252490Y25844D01*
X252392Y25864D01*
X252299Y25903D01*
X252199D01*
X252100Y25922D01*
X252002Y25903D01*
X251901D01*
X251808Y25864D01*
X251710Y25844D01*
X251626Y25789D01*
X251534Y25750D01*
X250934Y25349D01*
X250863Y25278D01*
X250779Y25223D01*
X250723Y25139D01*
X250652Y25068D01*
X250614Y24975D01*
X250558Y24892D01*
X250538Y24793D01*
X250500Y24701D01*
Y24600D01*
X250480Y24502D01*
Y19922D01*
X248078Y17520D01*
X236000D01*
X235831Y17486D01*
X235660Y17461D01*
X235636Y17447D01*
X235610Y17442D01*
X235466Y17346D01*
X235318Y17258D01*
X230318Y12758D01*
X230302Y12736D01*
X230279Y12721D01*
X230183Y12577D01*
X230080Y12439D01*
X230073Y12413D01*
X230058Y12390D01*
X230024Y12221D01*
X229982Y12054D01*
X229986Y12027D01*
X229980Y12000D01*
Y7672D01*
X229994Y7606D01*
X229989Y7539D01*
X230032Y7412D01*
X230058Y7282D01*
X230095Y7226D01*
X230117Y7162D01*
X230205Y7062D01*
X230279Y6951D01*
X230335Y6914D01*
X230379Y6863D01*
X230499Y6804D01*
X230610Y6730D01*
X230976Y6211D01*
X230800Y5553D01*
Y4447D01*
X231086Y3379D01*
X231639Y2421D01*
X231960Y2100D01*
X231712Y1500D01*
X228288D01*
X228040Y2100D01*
X228361Y2421D01*
X228914Y3379D01*
X229200Y4447D01*
Y5553D01*
X228914Y6621D01*
X228361Y7579D01*
X227579Y8361D01*
X226621Y8914D01*
X225553Y9200D01*
X224447D01*
X223379Y8914D01*
X222421Y8361D01*
X221639Y7579D01*
X221086Y6621D01*
X220800Y5553D01*
Y4447D01*
X221086Y3379D01*
X221639Y2421D01*
X221960Y2100D01*
X221712Y1500D01*
X218288D01*
X218040Y2100D01*
X218361Y2421D01*
X218914Y3379D01*
X219200Y4447D01*
Y5553D01*
X218914Y6621D01*
X218361Y7579D01*
X217579Y8361D01*
X216621Y8914D01*
X215553Y9200D01*
X214447D01*
X213379Y8914D01*
X212421Y8361D01*
X211639Y7579D01*
X211086Y6621D01*
X210800Y5553D01*
Y4447D01*
X211086Y3379D01*
X211639Y2421D01*
X211960Y2100D01*
X211712Y1500D01*
X208288D01*
X208040Y2100D01*
X208361Y2421D01*
X208914Y3379D01*
X209200Y4447D01*
Y5553D01*
X208914Y6621D01*
X208361Y7579D01*
X207579Y8361D01*
X206621Y8914D01*
X205553Y9200D01*
X204447D01*
X203379Y8914D01*
X202421Y8361D01*
X201639Y7579D01*
X201086Y6621D01*
X200800Y5553D01*
Y4447D01*
X201086Y3379D01*
X201639Y2421D01*
X201960Y2100D01*
X201712Y1500D01*
X198288D01*
X198040Y2100D01*
X198361Y2421D01*
X198914Y3379D01*
X199200Y4447D01*
Y5553D01*
X198914Y6621D01*
X198361Y7579D01*
X197579Y8361D01*
X196621Y8914D01*
X195553Y9200D01*
X194447D01*
X193379Y8914D01*
X192421Y8361D01*
X191639Y7579D01*
X191086Y6621D01*
X190800Y5553D01*
Y4447D01*
X191086Y3379D01*
X191639Y2421D01*
X191960Y2100D01*
X191712Y1500D01*
X188288D01*
X188040Y2100D01*
X188361Y2421D01*
X188914Y3379D01*
X189200Y4447D01*
Y5553D01*
X188914Y6621D01*
X188361Y7579D01*
X187579Y8361D01*
X186621Y8914D01*
X185553Y9200D01*
X184447D01*
X183379Y8914D01*
X182421Y8361D01*
X181639Y7579D01*
X181086Y6621D01*
X180800Y5553D01*
Y4447D01*
X181086Y3379D01*
X181639Y2421D01*
X181960Y2100D01*
X181712Y1500D01*
X178288D01*
X178040Y2100D01*
X178361Y2421D01*
X178914Y3379D01*
X179200Y4447D01*
Y5553D01*
X178914Y6621D01*
X178361Y7579D01*
X177579Y8361D01*
X176621Y8914D01*
X175553Y9200D01*
X174447D01*
X173379Y8914D01*
X172421Y8361D01*
X171639Y7579D01*
X171086Y6621D01*
X170800Y5553D01*
Y4447D01*
X171086Y3379D01*
X171639Y2421D01*
X171960Y2100D01*
X171712Y1500D01*
X168288D01*
X168040Y2100D01*
X168361Y2421D01*
X168914Y3379D01*
X169200Y4447D01*
Y5553D01*
X168914Y6621D01*
X168361Y7579D01*
X167579Y8361D01*
X166621Y8914D01*
X165553Y9200D01*
X164447D01*
X163379Y8914D01*
X162421Y8361D01*
X161639Y7579D01*
X161086Y6621D01*
X160800Y5553D01*
Y4447D01*
X161086Y3379D01*
X161639Y2421D01*
X161960Y2100D01*
X161712Y1500D01*
X158288D01*
X158040Y2100D01*
X158361Y2421D01*
X158914Y3379D01*
X159200Y4447D01*
Y5553D01*
X158914Y6621D01*
X158361Y7579D01*
X157579Y8361D01*
X156621Y8914D01*
X155553Y9200D01*
X154447D01*
X153379Y8914D01*
X152421Y8361D01*
X151639Y7579D01*
X151086Y6621D01*
X150800Y5553D01*
Y4447D01*
X151086Y3379D01*
X151639Y2421D01*
X151960Y2100D01*
X151712Y1500D01*
X148288D01*
X148040Y2100D01*
X148361Y2421D01*
X148914Y3379D01*
X149200Y4447D01*
Y5553D01*
X148914Y6621D01*
X148361Y7579D01*
X147579Y8361D01*
X146621Y8914D01*
X145553Y9200D01*
X144447D01*
X143379Y8914D01*
X142421Y8361D01*
X141639Y7579D01*
X141086Y6621D01*
X140800Y5553D01*
Y4447D01*
X141086Y3379D01*
X141639Y2421D01*
X141960Y2100D01*
X141712Y1500D01*
X138288D01*
X138040Y2100D01*
X138361Y2421D01*
X138914Y3379D01*
X139200Y4447D01*
Y5553D01*
X138914Y6621D01*
X138361Y7579D01*
X137579Y8361D01*
X136621Y8914D01*
X135553Y9200D01*
X134447D01*
X133379Y8914D01*
X132421Y8361D01*
X131639Y7579D01*
X131086Y6621D01*
X130800Y5553D01*
Y4447D01*
X131086Y3379D01*
X131639Y2421D01*
X131960Y2100D01*
X131712Y1500D01*
X128288D01*
X128040Y2100D01*
X128361Y2421D01*
X128914Y3379D01*
X129200Y4447D01*
Y5553D01*
X128914Y6621D01*
X128361Y7579D01*
X127579Y8361D01*
X126621Y8914D01*
X125553Y9200D01*
X124447D01*
X123379Y8914D01*
X122421Y8361D01*
X121639Y7579D01*
X121086Y6621D01*
X120800Y5553D01*
Y4447D01*
X121086Y3379D01*
X121639Y2421D01*
X121960Y2100D01*
X121712Y1500D01*
X118288D01*
X118040Y2100D01*
X118361Y2421D01*
X118914Y3379D01*
X119200Y4447D01*
Y5553D01*
X118914Y6621D01*
X118361Y7579D01*
X117579Y8361D01*
X116621Y8914D01*
X115553Y9200D01*
X114447D01*
X113379Y8914D01*
X112421Y8361D01*
X111639Y7579D01*
X111086Y6621D01*
X110800Y5553D01*
Y4447D01*
X111086Y3379D01*
X111639Y2421D01*
X111960Y2100D01*
X111712Y1500D01*
X108288D01*
X108040Y2100D01*
X108361Y2421D01*
X108914Y3379D01*
X109200Y4447D01*
Y5553D01*
X108914Y6621D01*
X108361Y7579D01*
X107579Y8361D01*
X106621Y8914D01*
X105553Y9200D01*
X104447D01*
X103379Y8914D01*
X102421Y8361D01*
X101639Y7579D01*
X101086Y6621D01*
X100800Y5553D01*
Y4447D01*
X101086Y3379D01*
X101639Y2421D01*
X101960Y2100D01*
X101712Y1500D01*
X98288D01*
X98040Y2100D01*
X98361Y2421D01*
X98914Y3379D01*
X99200Y4447D01*
Y5553D01*
X98914Y6621D01*
X98361Y7579D01*
X97579Y8361D01*
X96621Y8914D01*
X95553Y9200D01*
X94447D01*
X93379Y8914D01*
X92421Y8361D01*
X91639Y7579D01*
X91086Y6621D01*
X90800Y5553D01*
Y4447D01*
X91086Y3379D01*
X91639Y2421D01*
X91960Y2100D01*
X91712Y1500D01*
X88288D01*
X88040Y2100D01*
X88361Y2421D01*
X88914Y3379D01*
X89200Y4447D01*
Y5553D01*
X88914Y6621D01*
X88361Y7579D01*
X87579Y8361D01*
X86621Y8914D01*
X85553Y9200D01*
X84447D01*
X83379Y8914D01*
X82421Y8361D01*
X81639Y7579D01*
X81086Y6621D01*
X80800Y5553D01*
Y4447D01*
X81086Y3379D01*
X81639Y2421D01*
X81960Y2100D01*
X81712Y1500D01*
X78005D01*
X77757Y2100D01*
X78201Y2544D01*
X78727Y3456D01*
X79000Y4473D01*
Y5527D01*
X78727Y6544D01*
X78201Y7456D01*
X77456Y8201D01*
X76544Y8727D01*
X75527Y9000D01*
X74473D01*
X73456Y8727D01*
X72544Y8201D01*
X71799Y7456D01*
X71273Y6544D01*
X71000Y5527D01*
Y4473D01*
X71273Y3456D01*
X71799Y2544D01*
X72243Y2100D01*
X71995Y1500D01*
X68005D01*
X67757Y2100D01*
X68201Y2544D01*
X68727Y3456D01*
X69000Y4473D01*
Y5527D01*
X68727Y6544D01*
X68201Y7456D01*
X67456Y8201D01*
X66544Y8727D01*
X65527Y9000D01*
X64473D01*
X63456Y8727D01*
X62544Y8201D01*
X61799Y7456D01*
X61273Y6544D01*
X61000Y5527D01*
Y4473D01*
X61273Y3456D01*
X61799Y2544D01*
X62243Y2100D01*
X61995Y1500D01*
X58288D01*
X58040Y2100D01*
X58361Y2421D01*
X58914Y3379D01*
X59200Y4447D01*
Y5553D01*
X58914Y6621D01*
X58361Y7579D01*
X57579Y8361D01*
X56621Y8914D01*
X55553Y9200D01*
X54447D01*
X53379Y8914D01*
X52421Y8361D01*
X51639Y7579D01*
X51086Y6621D01*
X50800Y5553D01*
Y4447D01*
X51086Y3379D01*
X51639Y2421D01*
X51960Y2100D01*
X51712Y1500D01*
X48288D01*
X48040Y2100D01*
X48361Y2421D01*
X48914Y3379D01*
X49200Y4447D01*
Y5553D01*
X48914Y6621D01*
X48361Y7579D01*
X47579Y8361D01*
X46621Y8914D01*
X45553Y9200D01*
X44447D01*
X43379Y8914D01*
X42421Y8361D01*
X41639Y7579D01*
X41086Y6621D01*
X40800Y5553D01*
Y4447D01*
X41086Y3379D01*
X41639Y2421D01*
X41960Y2100D01*
X41712Y1500D01*
X3000D01*
X2000Y2500D01*
Y98500D01*
X31712D01*
X31960Y97900D01*
X31639Y97579D01*
X31086Y96621D01*
X30800Y95553D01*
Y94447D01*
X31086Y93379D01*
X31639Y92421D01*
X32421Y91639D01*
X33379Y91086D01*
X34447Y90800D01*
X35553D01*
X36621Y91086D01*
X37579Y91639D01*
X38361Y92421D01*
X38914Y93379D01*
X39200Y94447D01*
Y95553D01*
X38914Y96621D01*
X38361Y97579D01*
X38040Y97900D01*
X38288Y98500D01*
X51712D01*
X51960Y97900D01*
X51639Y97579D01*
X51086Y96621D01*
X50800Y95553D01*
Y94447D01*
X51086Y93379D01*
X51639Y92421D01*
X52421Y91639D01*
X53379Y91086D01*
X54447Y90800D01*
X55553D01*
X56621Y91086D01*
X57579Y91639D01*
X58361Y92421D01*
X58914Y93379D01*
X59200Y94447D01*
Y95553D01*
X58914Y96621D01*
X58361Y97579D01*
X58040Y97900D01*
X58288Y98500D01*
X61712D01*
X61960Y97900D01*
X61639Y97579D01*
X61086Y96621D01*
X60800Y95553D01*
Y94447D01*
X61086Y93379D01*
X61639Y92421D01*
X62421Y91639D01*
X63379Y91086D01*
X64447Y90800D01*
X65553D01*
X66621Y91086D01*
X67579Y91639D01*
X68361Y92421D01*
X68914Y93379D01*
X69200Y94447D01*
Y95553D01*
X68914Y96621D01*
X68361Y97579D01*
X68040Y97900D01*
X68288Y98500D01*
X71712D01*
X71960Y97900D01*
X71639Y97579D01*
X71086Y96621D01*
X70800Y95553D01*
Y94447D01*
X71086Y93379D01*
X71639Y92421D01*
X72421Y91639D01*
X73379Y91086D01*
X74447Y90800D01*
X75553D01*
X76621Y91086D01*
X77579Y91639D01*
X78361Y92421D01*
X78914Y93379D01*
X79200Y94447D01*
Y95553D01*
X78914Y96621D01*
X78361Y97579D01*
X78040Y97900D01*
X78288Y98500D01*
X81712D01*
X81960Y97900D01*
X81639Y97579D01*
X81086Y96621D01*
X80800Y95553D01*
Y94447D01*
X81086Y93379D01*
X81639Y92421D01*
X82421Y91639D01*
X83379Y91086D01*
X84447Y90800D01*
X85553D01*
X86621Y91086D01*
X87579Y91639D01*
X88361Y92421D01*
X88914Y93379D01*
X89200Y94447D01*
Y95553D01*
X88914Y96621D01*
X88361Y97579D01*
X88040Y97900D01*
X88288Y98500D01*
X91712D01*
X91960Y97900D01*
D02*
G37*
G36*
X260800Y90800D02*
X268500D01*
Y20895D01*
X267900Y20508D01*
X267438Y20700D01*
X266562D01*
X265754Y20365D01*
X265135Y19746D01*
X264800Y18938D01*
Y18062D01*
X265135Y17254D01*
X265754Y16635D01*
X266562Y16300D01*
X267438D01*
X267900Y16491D01*
X268500Y16105D01*
Y1500D01*
X258288D01*
X258040Y2100D01*
X258361Y2421D01*
X258914Y3379D01*
X259200Y4447D01*
Y5553D01*
X258914Y6621D01*
X258361Y7579D01*
X257579Y8361D01*
X256621Y8914D01*
X255553Y9200D01*
X254447D01*
X253379Y8914D01*
X252421Y8361D01*
X251639Y7579D01*
X251086Y6621D01*
X250800Y5553D01*
Y4447D01*
X251086Y3379D01*
X251639Y2421D01*
X251960Y2100D01*
X251712Y1500D01*
X248288D01*
X248040Y2100D01*
X248361Y2421D01*
X248914Y3379D01*
X249200Y4447D01*
Y5553D01*
X248914Y6621D01*
X248361Y7579D01*
X247579Y8361D01*
X246621Y8914D01*
X245553Y9200D01*
X244447D01*
X243379Y8914D01*
X242421Y8361D01*
X241639Y7579D01*
X241086Y6621D01*
X240800Y5553D01*
Y4447D01*
X241086Y3379D01*
X241639Y2421D01*
X241960Y2100D01*
X241712Y1500D01*
X238288D01*
X238040Y2100D01*
X238361Y2421D01*
X238914Y3379D01*
X239200Y4447D01*
Y5553D01*
X238914Y6621D01*
X238361Y7579D01*
X237579Y8361D01*
X236621Y8914D01*
X235553Y9200D01*
X234447D01*
X233379Y8914D01*
X232421Y8361D01*
X231639Y7579D01*
X231600Y7511D01*
X231000Y7672D01*
Y12000D01*
X236000Y16500D01*
X248500D01*
X251500Y19500D01*
Y24502D01*
X252100Y24903D01*
X252452Y24757D01*
X253327D01*
X254136Y25092D01*
X254563Y25519D01*
X254990Y25092D01*
X255799Y24757D01*
X256674D01*
X257482Y25092D01*
X258101Y25710D01*
X258436Y26519D01*
Y27394D01*
X258101Y28203D01*
X257482Y28822D01*
X256674Y29157D01*
X255799D01*
X254990Y28822D01*
X254563Y28395D01*
X254136Y28822D01*
X253327Y29157D01*
X252452D01*
X252100Y29011D01*
X251500Y29412D01*
Y30965D01*
X251747Y31562D01*
Y32438D01*
X251500Y33035D01*
Y42580D01*
X251700Y43062D01*
Y43938D01*
X251500Y44420D01*
Y49080D01*
X251700Y49562D01*
Y50438D01*
X251500Y50920D01*
Y55580D01*
X251700Y56062D01*
Y56938D01*
X251500Y57420D01*
Y72018D01*
X251743Y72606D01*
Y73481D01*
X251500Y74068D01*
Y78500D01*
X250500Y79500D01*
X210500D01*
X209500Y78500D01*
X190000D01*
X188944Y77444D01*
X188754Y77365D01*
X188135Y76746D01*
X188056Y76556D01*
X182000Y70500D01*
X151500D01*
X146500Y65500D01*
Y48000D01*
X140500D01*
Y49803D01*
X140526Y50000D01*
X140500Y50197D01*
Y53000D01*
Y60500D01*
X135000Y66000D01*
X121000D01*
Y81000D01*
X99500D01*
Y98500D01*
X101712D01*
X101960Y97900D01*
X101639Y97579D01*
X101086Y96621D01*
X100800Y95553D01*
Y94447D01*
X101086Y93379D01*
X101639Y92421D01*
X102421Y91639D01*
X103379Y91086D01*
X104447Y90800D01*
X105553D01*
X106621Y91086D01*
X107579Y91639D01*
X108361Y92421D01*
X108914Y93379D01*
X109200Y94447D01*
Y95553D01*
X108914Y96621D01*
X108361Y97579D01*
X108040Y97900D01*
X108288Y98500D01*
X111712D01*
X111960Y97900D01*
X111639Y97579D01*
X111086Y96621D01*
X110800Y95553D01*
Y94447D01*
X111086Y93379D01*
X111639Y92421D01*
X112421Y91639D01*
X113379Y91086D01*
X114447Y90800D01*
X115553D01*
X116621Y91086D01*
X117579Y91639D01*
X118361Y92421D01*
X118914Y93379D01*
X119200Y94447D01*
Y95553D01*
X118914Y96621D01*
X118361Y97579D01*
X118040Y97900D01*
X118288Y98500D01*
X121712D01*
X121960Y97900D01*
X121639Y97579D01*
X121086Y96621D01*
X120800Y95553D01*
Y94447D01*
X121086Y93379D01*
X121639Y92421D01*
X122421Y91639D01*
X123379Y91086D01*
X124447Y90800D01*
X125553D01*
X126621Y91086D01*
X127579Y91639D01*
X128361Y92421D01*
X128914Y93379D01*
X129200Y94447D01*
Y95553D01*
X128914Y96621D01*
X128361Y97579D01*
X128040Y97900D01*
X128288Y98500D01*
X131712D01*
X131960Y97900D01*
X131639Y97579D01*
X131086Y96621D01*
X130800Y95553D01*
Y94447D01*
X131086Y93379D01*
X131639Y92421D01*
X132421Y91639D01*
X133379Y91086D01*
X134447Y90800D01*
X135553D01*
X136621Y91086D01*
X137579Y91639D01*
X138361Y92421D01*
X138914Y93379D01*
X139200Y94447D01*
Y95553D01*
X138914Y96621D01*
X138361Y97579D01*
X138040Y97900D01*
X138288Y98500D01*
X141712D01*
X141960Y97900D01*
X141639Y97579D01*
X141086Y96621D01*
X140800Y95553D01*
Y94447D01*
X141086Y93379D01*
X141639Y92421D01*
X142421Y91639D01*
X143379Y91086D01*
X144447Y90800D01*
X145553D01*
X146621Y91086D01*
X147579Y91639D01*
X148361Y92421D01*
X148914Y93379D01*
X149200Y94447D01*
Y95553D01*
X148914Y96621D01*
X148361Y97579D01*
X148040Y97900D01*
X148288Y98500D01*
X151712D01*
X151960Y97900D01*
X151639Y97579D01*
X151086Y96621D01*
X150800Y95553D01*
Y94447D01*
X151086Y93379D01*
X151639Y92421D01*
X152421Y91639D01*
X153379Y91086D01*
X154447Y90800D01*
X155553D01*
X156621Y91086D01*
X157579Y91639D01*
X158361Y92421D01*
X158914Y93379D01*
X159200Y94447D01*
Y95553D01*
X158914Y96621D01*
X158361Y97579D01*
X158040Y97900D01*
X158288Y98500D01*
X161712D01*
X161960Y97900D01*
X161639Y97579D01*
X161086Y96621D01*
X160800Y95553D01*
Y94447D01*
X161086Y93379D01*
X161639Y92421D01*
X162421Y91639D01*
X163379Y91086D01*
X164447Y90800D01*
X165553D01*
X166621Y91086D01*
X167579Y91639D01*
X168361Y92421D01*
X168914Y93379D01*
X169200Y94447D01*
Y95553D01*
X168914Y96621D01*
X168361Y97579D01*
X168040Y97900D01*
X168288Y98500D01*
X171712D01*
X171960Y97900D01*
X171639Y97579D01*
X171086Y96621D01*
X170800Y95553D01*
Y94447D01*
X171086Y93379D01*
X171639Y92421D01*
X172421Y91639D01*
X173379Y91086D01*
X174447Y90800D01*
X175553D01*
X176621Y91086D01*
X177579Y91639D01*
X178361Y92421D01*
X178914Y93379D01*
X179200Y94447D01*
Y95553D01*
X178914Y96621D01*
X178361Y97579D01*
X178040Y97900D01*
X178288Y98500D01*
X181712D01*
X181960Y97900D01*
X181639Y97579D01*
X181086Y96621D01*
X180800Y95553D01*
Y94447D01*
X181086Y93379D01*
X181639Y92421D01*
X182421Y91639D01*
X183379Y91086D01*
X184447Y90800D01*
X185553D01*
X186621Y91086D01*
X187579Y91639D01*
X188361Y92421D01*
X188914Y93379D01*
X189200Y94447D01*
Y95553D01*
X188914Y96621D01*
X188361Y97579D01*
X188040Y97900D01*
X188288Y98500D01*
X191712D01*
X191960Y97900D01*
X191639Y97579D01*
X191086Y96621D01*
X190800Y95553D01*
Y94447D01*
X191086Y93379D01*
X191639Y92421D01*
X192421Y91639D01*
X193379Y91086D01*
X194447Y90800D01*
X195553D01*
X196621Y91086D01*
X197579Y91639D01*
X198361Y92421D01*
X198914Y93379D01*
X199200Y94447D01*
Y95553D01*
X198914Y96621D01*
X198361Y97579D01*
X198040Y97900D01*
X198288Y98500D01*
X201712D01*
X201960Y97900D01*
X201639Y97579D01*
X201086Y96621D01*
X200800Y95553D01*
Y94447D01*
X201086Y93379D01*
X201639Y92421D01*
X202421Y91639D01*
X203379Y91086D01*
X204447Y90800D01*
X205553D01*
X206621Y91086D01*
X207579Y91639D01*
X208361Y92421D01*
X208914Y93379D01*
X209200Y94447D01*
Y95553D01*
X208914Y96621D01*
X208361Y97579D01*
X208040Y97900D01*
X208288Y98500D01*
X211712D01*
X211960Y97900D01*
X211639Y97579D01*
X211086Y96621D01*
X210800Y95553D01*
Y94447D01*
X211086Y93379D01*
X211639Y92421D01*
X212421Y91639D01*
X213379Y91086D01*
X214447Y90800D01*
X215553D01*
X216621Y91086D01*
X217579Y91639D01*
X218361Y92421D01*
X218914Y93379D01*
X219200Y94447D01*
Y95553D01*
X218914Y96621D01*
X218361Y97579D01*
X218040Y97900D01*
X218288Y98500D01*
X221712D01*
X221960Y97900D01*
X221639Y97579D01*
X221086Y96621D01*
X220800Y95553D01*
Y94447D01*
X221086Y93379D01*
X221639Y92421D01*
X222421Y91639D01*
X223379Y91086D01*
X224447Y90800D01*
X225553D01*
X226621Y91086D01*
X227579Y91639D01*
X228361Y92421D01*
X228914Y93379D01*
X229200Y94447D01*
Y95553D01*
X228914Y96621D01*
X228361Y97579D01*
X228040Y97900D01*
X228288Y98500D01*
X231712D01*
X231960Y97900D01*
X231639Y97579D01*
X231086Y96621D01*
X230800Y95553D01*
Y94447D01*
X231086Y93379D01*
X231639Y92421D01*
X232421Y91639D01*
X233379Y91086D01*
X234447Y90800D01*
X235553D01*
X236621Y91086D01*
X237579Y91639D01*
X238361Y92421D01*
X238914Y93379D01*
X239200Y94447D01*
Y95553D01*
X238914Y96621D01*
X238361Y97579D01*
X238040Y97900D01*
X238288Y98500D01*
X241712D01*
X241960Y97900D01*
X241639Y97579D01*
X241086Y96621D01*
X240800Y95553D01*
Y94447D01*
X241086Y93379D01*
X241639Y92421D01*
X242421Y91639D01*
X243219Y91179D01*
X243366Y90679D01*
X243359Y90470D01*
X243135Y90246D01*
X242800Y89438D01*
Y88562D01*
X243135Y87754D01*
X243754Y87135D01*
X244562Y86800D01*
X245438D01*
X246246Y87135D01*
X246865Y87754D01*
X247200Y88562D01*
Y89438D01*
X246865Y90246D01*
X246641Y90470D01*
X246634Y90679D01*
X246781Y91179D01*
X247579Y91639D01*
X248361Y92421D01*
X248914Y93379D01*
X249200Y94447D01*
Y95553D01*
X248914Y96621D01*
X248361Y97579D01*
X248040Y97900D01*
X248288Y98500D01*
X260800D01*
Y90800D01*
D02*
G37*
G36*
X69000Y14000D02*
X46600D01*
Y22500D01*
X69000D01*
Y14000D01*
D02*
G37*
G36*
X256228Y7964D02*
X256953Y7545D01*
X257545Y6953D01*
X257964Y6228D01*
X258180Y5419D01*
Y4581D01*
X257964Y3772D01*
X257545Y3047D01*
X257319Y2821D01*
X257098Y2490D01*
X257020Y2100D01*
X256571Y1500D01*
X253429D01*
X252980Y2100D01*
X252902Y2490D01*
X252681Y2821D01*
X252455Y3047D01*
X252036Y3772D01*
X251820Y4581D01*
Y5419D01*
X252036Y6228D01*
X252455Y6953D01*
X253047Y7545D01*
X253772Y7964D01*
X254581Y8180D01*
X255419D01*
X256228Y7964D01*
D02*
G37*
%LPC*%
G36*
X76438Y90200D02*
X75562D01*
X74754Y89865D01*
X74135Y89246D01*
X73800Y88438D01*
Y87562D01*
X74135Y86754D01*
X74754Y86135D01*
X75562Y85800D01*
X76438D01*
X77246Y86135D01*
X77544Y86433D01*
X77576Y86465D01*
X78085Y86125D01*
X78057Y86059D01*
X77800Y85438D01*
Y84562D01*
X78135Y83754D01*
X78754Y83135D01*
X79562Y82800D01*
X80438D01*
X81246Y83135D01*
X81865Y83754D01*
X82200Y84562D01*
Y85438D01*
X81865Y86246D01*
X81246Y86865D01*
X80438Y87200D01*
X79562D01*
X78754Y86865D01*
X78456Y86567D01*
X78424Y86535D01*
X77915Y86875D01*
X77943Y86941D01*
X78200Y87562D01*
Y88438D01*
X77865Y89246D01*
X77246Y89865D01*
X76438Y90200D01*
D02*
G37*
G36*
X35898Y80500D02*
X35102D01*
X34367Y80195D01*
X33805Y79633D01*
X33582Y79095D01*
X33041Y78915D01*
X32909Y78920D01*
X32633Y79195D01*
X31898Y79500D01*
X31102D01*
X30367Y79195D01*
X29805Y78633D01*
X29500Y77898D01*
Y77102D01*
X29805Y76367D01*
X30367Y75805D01*
X31102Y75500D01*
X31898D01*
X32633Y75805D01*
X33195Y76367D01*
X33418Y76905D01*
X33959Y77085D01*
X34091Y77081D01*
X34367Y76805D01*
X35102Y76500D01*
X35898D01*
X36633Y76805D01*
X37196Y77367D01*
X37500Y78102D01*
Y78898D01*
X37196Y79633D01*
X36633Y80195D01*
X35898Y80500D01*
D02*
G37*
G36*
X49398Y80000D02*
X48602D01*
X47867Y79695D01*
X47304Y79133D01*
X47000Y78398D01*
Y77602D01*
X47304Y76867D01*
X47751Y76421D01*
X47734Y75924D01*
X47669Y75737D01*
X47568Y75696D01*
X47005Y75133D01*
X46701Y74398D01*
Y73602D01*
X47005Y72867D01*
X47568Y72304D01*
X48303Y72000D01*
X49099D01*
X49834Y72304D01*
X50396Y72867D01*
X50701Y73602D01*
Y74398D01*
X50396Y75133D01*
X49950Y75579D01*
X49967Y76076D01*
X50032Y76263D01*
X50133Y76305D01*
X50696Y76867D01*
X51000Y77602D01*
Y78398D01*
X50696Y79133D01*
X50133Y79695D01*
X49398Y80000D01*
D02*
G37*
G36*
X243288Y75243D02*
X242413D01*
X241604Y74908D01*
X240985Y74290D01*
X240650Y73481D01*
Y72606D01*
X240985Y71797D01*
X241604Y71178D01*
X242413Y70843D01*
X243288D01*
X244097Y71178D01*
X244715Y71797D01*
X245050Y72606D01*
Y73481D01*
X244715Y74290D01*
X244097Y74908D01*
X243288Y75243D01*
D02*
G37*
G36*
X236595D02*
X235720D01*
X234911Y74908D01*
X234292Y74290D01*
X233958Y73481D01*
Y72606D01*
X234292Y71797D01*
X234911Y71178D01*
X235720Y70843D01*
X236595D01*
X237404Y71178D01*
X238023Y71797D01*
X238357Y72606D01*
Y73481D01*
X238023Y74290D01*
X237404Y74908D01*
X236595Y75243D01*
D02*
G37*
G36*
X229902D02*
X229027D01*
X228218Y74908D01*
X227600Y74290D01*
X227265Y73481D01*
Y72606D01*
X227600Y71797D01*
X228218Y71178D01*
X229027Y70843D01*
X229902D01*
X230711Y71178D01*
X231330Y71797D01*
X231665Y72606D01*
Y73481D01*
X231330Y74290D01*
X230711Y74908D01*
X229902Y75243D01*
D02*
G37*
G36*
X223209D02*
X222334D01*
X221526Y74908D01*
X220907Y74290D01*
X220572Y73481D01*
Y72606D01*
X220907Y71797D01*
X221526Y71178D01*
X222334Y70843D01*
X223209D01*
X224018Y71178D01*
X224637Y71797D01*
X224972Y72606D01*
Y73481D01*
X224637Y74290D01*
X224018Y74908D01*
X223209Y75243D01*
D02*
G37*
G36*
X216516D02*
X215641D01*
X214832Y74908D01*
X214214Y74290D01*
X213879Y73481D01*
Y72606D01*
X214214Y71797D01*
X214832Y71178D01*
X215641Y70843D01*
X216516D01*
X217325Y71178D01*
X217944Y71797D01*
X218279Y72606D01*
Y73481D01*
X217944Y74290D01*
X217325Y74908D01*
X216516Y75243D01*
D02*
G37*
G36*
X64638Y71500D02*
X63762D01*
X62954Y71165D01*
X62335Y70546D01*
X62000Y69738D01*
Y68862D01*
X62335Y68054D01*
X62954Y67435D01*
X63762Y67100D01*
X64638D01*
X65446Y67435D01*
X66065Y68054D01*
X66400Y68862D01*
Y69738D01*
X66065Y70546D01*
X65446Y71165D01*
X64638Y71500D01*
D02*
G37*
G36*
X246631Y70200D02*
X245755D01*
X244947Y69865D01*
X244328Y69246D01*
X243993Y68438D01*
Y67562D01*
X244328Y66754D01*
X244947Y66135D01*
X245755Y65800D01*
X246631D01*
X247439Y66135D01*
X248058Y66754D01*
X248393Y67562D01*
Y68438D01*
X248058Y69246D01*
X247439Y69865D01*
X246631Y70200D01*
D02*
G37*
G36*
X239938D02*
X239062D01*
X238254Y69865D01*
X237635Y69246D01*
X237300Y68438D01*
Y67562D01*
X237635Y66754D01*
X238254Y66135D01*
X239062Y65800D01*
X239938D01*
X240746Y66135D01*
X241365Y66754D01*
X241700Y67562D01*
Y68438D01*
X241365Y69246D01*
X240746Y69865D01*
X239938Y70200D01*
D02*
G37*
G36*
X233245D02*
X232369D01*
X231561Y69865D01*
X230942Y69246D01*
X230607Y68438D01*
Y67562D01*
X230942Y66754D01*
X231561Y66135D01*
X232369Y65800D01*
X233245D01*
X234053Y66135D01*
X234672Y66754D01*
X235007Y67562D01*
Y68438D01*
X234672Y69246D01*
X234053Y69865D01*
X233245Y70200D01*
D02*
G37*
G36*
X226552D02*
X225677D01*
X224868Y69865D01*
X224249Y69246D01*
X223914Y68438D01*
Y67562D01*
X224249Y66754D01*
X224868Y66135D01*
X225677Y65800D01*
X226552D01*
X227360Y66135D01*
X227979Y66754D01*
X228314Y67562D01*
Y68438D01*
X227979Y69246D01*
X227360Y69865D01*
X226552Y70200D01*
D02*
G37*
G36*
X219859D02*
X218984D01*
X218175Y69865D01*
X217556Y69246D01*
X217221Y68438D01*
Y67562D01*
X217556Y66754D01*
X218175Y66135D01*
X218984Y65800D01*
X219859D01*
X220668Y66135D01*
X221286Y66754D01*
X221621Y67562D01*
Y68438D01*
X221286Y69246D01*
X220668Y69865D01*
X219859Y70200D01*
D02*
G37*
G36*
X185438Y69700D02*
X184562D01*
X183754Y69365D01*
X183135Y68746D01*
X182800Y67938D01*
Y67062D01*
X183135Y66254D01*
X183754Y65635D01*
X184562Y65300D01*
X185438D01*
X186246Y65635D01*
X186865Y66254D01*
X187200Y67062D01*
Y67938D01*
X186865Y68746D01*
X186246Y69365D01*
X185438Y69700D01*
D02*
G37*
G36*
X201438Y66200D02*
X200562D01*
X199754Y65865D01*
X199135Y65246D01*
X198800Y64438D01*
Y63562D01*
X199135Y62754D01*
X199754Y62135D01*
X200562Y61800D01*
X201438D01*
X202246Y62135D01*
X202865Y62754D01*
X203200Y63562D01*
Y64438D01*
X202865Y65246D01*
X202246Y65865D01*
X201438Y66200D01*
D02*
G37*
G36*
X156438Y63200D02*
X155562D01*
X154754Y62865D01*
X154135Y62246D01*
X153800Y61438D01*
Y60562D01*
X154135Y59754D01*
X154754Y59135D01*
X155562Y58800D01*
X156438D01*
X157246Y59135D01*
X157865Y59754D01*
X158200Y60562D01*
Y61438D01*
X157865Y62246D01*
X157246Y62865D01*
X156438Y63200D01*
D02*
G37*
G36*
X164938Y61486D02*
X164062D01*
X163254Y61151D01*
X162635Y60532D01*
X162300Y59723D01*
Y58848D01*
X162635Y58040D01*
X163254Y57421D01*
X164062Y57086D01*
X164938D01*
X165746Y57421D01*
X166365Y58040D01*
X166700Y58848D01*
Y59723D01*
X166365Y60532D01*
X165746Y61151D01*
X164938Y61486D01*
D02*
G37*
G36*
X174938Y63700D02*
X174062D01*
X173254Y63365D01*
X172635Y62746D01*
X172300Y61938D01*
Y61254D01*
X172300Y61062D01*
X171801Y60700D01*
X171562D01*
X170754Y60365D01*
X170135Y59746D01*
X169800Y58938D01*
Y58062D01*
X170135Y57254D01*
X170754Y56635D01*
X171562Y56300D01*
X172438D01*
X173246Y56635D01*
X173865Y57254D01*
X174200Y58062D01*
Y58746D01*
X174200Y58938D01*
X174699Y59300D01*
X174938D01*
X175746Y59635D01*
X176365Y60254D01*
X176700Y61062D01*
Y61938D01*
X176365Y62746D01*
X175746Y63365D01*
X174938Y63700D01*
D02*
G37*
G36*
X40500Y58000D02*
X34500D01*
Y52000D01*
X34500D01*
X34844Y51400D01*
X34704Y51158D01*
X34500Y50395D01*
Y49605D01*
X34704Y48842D01*
X35099Y48158D01*
X35349Y47908D01*
X35597Y47500D01*
X35349Y47092D01*
X35099Y46842D01*
X34704Y46158D01*
X34500Y45395D01*
Y44605D01*
X34704Y43842D01*
X35099Y43158D01*
X35658Y42599D01*
X36342Y42204D01*
X37105Y42000D01*
X37895D01*
X38658Y42204D01*
X39342Y42599D01*
X39901Y43158D01*
X40296Y43842D01*
X40500Y44605D01*
Y45395D01*
X40296Y46158D01*
X39901Y46842D01*
X39651Y47092D01*
X39403Y47500D01*
X39651Y47908D01*
X39901Y48158D01*
X40296Y48842D01*
X40500Y49605D01*
Y50395D01*
X40296Y51158D01*
X40156Y51400D01*
X40500Y52000D01*
X40500D01*
Y58000D01*
D02*
G37*
G36*
X203398Y53500D02*
X202602D01*
X201867Y53196D01*
X201305Y52633D01*
X201000Y51898D01*
Y51102D01*
X201305Y50367D01*
X201867Y49804D01*
X202602Y49500D01*
X203398D01*
X204133Y49804D01*
X204696Y50367D01*
X205000Y51102D01*
Y51898D01*
X204696Y52633D01*
X204133Y53196D01*
X203398Y53500D01*
D02*
G37*
G36*
X60438Y52200D02*
X59562D01*
X58754Y51865D01*
X58135Y51246D01*
X57800Y50438D01*
Y49562D01*
X58135Y48754D01*
X58754Y48135D01*
X59562Y47800D01*
X60438D01*
X61246Y48135D01*
X61865Y48754D01*
X62200Y49562D01*
Y50438D01*
X61865Y51246D01*
X61246Y51865D01*
X60438Y52200D01*
D02*
G37*
G36*
X187898Y53500D02*
X187102D01*
X186367Y53196D01*
X185804Y52633D01*
X185500Y51898D01*
Y51102D01*
X185804Y50367D01*
X186030Y50142D01*
X186326Y49750D01*
X186030Y49358D01*
X185804Y49133D01*
X185500Y48398D01*
Y47602D01*
X185804Y46867D01*
X186367Y46305D01*
X187102Y46000D01*
X187898D01*
X188633Y46305D01*
X189196Y46867D01*
X189500Y47602D01*
Y48398D01*
X189196Y49133D01*
X188970Y49358D01*
X188674Y49750D01*
X188970Y50142D01*
X189196Y50367D01*
X189500Y51102D01*
Y51898D01*
X189196Y52633D01*
X188633Y53196D01*
X187898Y53500D01*
D02*
G37*
G36*
X202498Y46800D02*
X201702D01*
X200967Y46496D01*
X200405Y45933D01*
X200100Y45198D01*
Y44402D01*
X200405Y43667D01*
X200967Y43104D01*
X201702Y42800D01*
X202498D01*
X203233Y43104D01*
X203796Y43667D01*
X204100Y44402D01*
Y45198D01*
X203796Y45933D01*
X203233Y46496D01*
X202498Y46800D01*
D02*
G37*
G36*
X180938Y44200D02*
X180062D01*
X179254Y43865D01*
X178635Y43246D01*
X178300Y42438D01*
Y41562D01*
X178635Y40754D01*
X179254Y40135D01*
X180062Y39800D01*
X180938D01*
X181746Y40135D01*
X182365Y40754D01*
X182700Y41562D01*
Y42438D01*
X182365Y43246D01*
X181746Y43865D01*
X180938Y44200D01*
D02*
G37*
G36*
X206438Y42200D02*
X205562D01*
X204754Y41865D01*
X204135Y41246D01*
X203800Y40438D01*
Y39562D01*
X204135Y38754D01*
X204754Y38135D01*
X205562Y37800D01*
X206438D01*
X207246Y38135D01*
X207865Y38754D01*
X208200Y39562D01*
Y40438D01*
X207865Y41246D01*
X207246Y41865D01*
X206438Y42200D01*
D02*
G37*
G36*
X198938Y41700D02*
X198062D01*
X197254Y41365D01*
X196635Y40746D01*
X196300Y39938D01*
Y39062D01*
X196635Y38254D01*
X197254Y37635D01*
X198062Y37300D01*
X198938D01*
X199746Y37635D01*
X200365Y38254D01*
X200700Y39062D01*
Y39938D01*
X200365Y40746D01*
X199746Y41365D01*
X198938Y41700D01*
D02*
G37*
G36*
X188438D02*
X187562D01*
X186754Y41365D01*
X186135Y40746D01*
X185800Y39938D01*
Y39062D01*
X186135Y38254D01*
X186754Y37635D01*
X187562Y37300D01*
X188438D01*
X189246Y37635D01*
X189865Y38254D01*
X190200Y39062D01*
Y39938D01*
X189865Y40746D01*
X189246Y41365D01*
X188438Y41700D01*
D02*
G37*
G36*
X209438Y35200D02*
X208562D01*
X207754Y34865D01*
X207135Y34246D01*
X206800Y33438D01*
Y32562D01*
X207135Y31754D01*
X207754Y31135D01*
X208562Y30800D01*
X209438D01*
X210246Y31135D01*
X210865Y31754D01*
X211200Y32562D01*
Y33438D01*
X210865Y34246D01*
X210246Y34865D01*
X209438Y35200D01*
D02*
G37*
G36*
X243292Y34200D02*
X242417D01*
X241608Y33865D01*
X240989Y33246D01*
X240654Y32438D01*
Y31562D01*
X240989Y30754D01*
X241608Y30135D01*
X242417Y29800D01*
X243292D01*
X244100Y30135D01*
X244719Y30754D01*
X245054Y31562D01*
Y32438D01*
X244719Y33246D01*
X244100Y33865D01*
X243292Y34200D01*
D02*
G37*
G36*
X236599D02*
X235724D01*
X234915Y33865D01*
X234296Y33246D01*
X233961Y32438D01*
Y31562D01*
X234296Y30754D01*
X234915Y30135D01*
X235724Y29800D01*
X236599D01*
X237408Y30135D01*
X238026Y30754D01*
X238361Y31562D01*
Y32438D01*
X238026Y33246D01*
X237408Y33865D01*
X236599Y34200D01*
D02*
G37*
G36*
X229906D02*
X229031D01*
X228222Y33865D01*
X227603Y33246D01*
X227269Y32438D01*
Y31562D01*
X227603Y30754D01*
X228222Y30135D01*
X229031Y29800D01*
X229906D01*
X230715Y30135D01*
X231334Y30754D01*
X231668Y31562D01*
Y32438D01*
X231334Y33246D01*
X230715Y33865D01*
X229906Y34200D01*
D02*
G37*
G36*
X223213D02*
X222338D01*
X221529Y33865D01*
X220911Y33246D01*
X220576Y32438D01*
Y31562D01*
X220911Y30754D01*
X221529Y30135D01*
X222338Y29800D01*
X223213D01*
X224022Y30135D01*
X224641Y30754D01*
X224976Y31562D01*
Y32438D01*
X224641Y33246D01*
X224022Y33865D01*
X223213Y34200D01*
D02*
G37*
G36*
X216520D02*
X215645D01*
X214837Y33865D01*
X214218Y33246D01*
X213883Y32438D01*
Y31562D01*
X214218Y30754D01*
X214837Y30135D01*
X215645Y29800D01*
X216520D01*
X217329Y30135D01*
X217948Y30754D01*
X218283Y31562D01*
Y32438D01*
X217948Y33246D01*
X217329Y33865D01*
X216520Y34200D01*
D02*
G37*
G36*
X226438Y29700D02*
X225562D01*
X224754Y29365D01*
X224135Y28746D01*
X223800Y27938D01*
Y27062D01*
X224135Y26254D01*
X224754Y25635D01*
X225562Y25300D01*
X226438D01*
X227246Y25635D01*
X227865Y26254D01*
X228200Y27062D01*
Y27938D01*
X227865Y28746D01*
X227246Y29365D01*
X226438Y29700D01*
D02*
G37*
G36*
X219938D02*
X219062D01*
X218254Y29365D01*
X217635Y28746D01*
X217300Y27938D01*
Y27062D01*
X217635Y26254D01*
X218254Y25635D01*
X219062Y25300D01*
X219938D01*
X220746Y25635D01*
X221365Y26254D01*
X221700Y27062D01*
Y27938D01*
X221365Y28746D01*
X220746Y29365D01*
X219938Y29700D01*
D02*
G37*
G36*
X233194Y29443D02*
X232319D01*
X231510Y29108D01*
X230892Y28490D01*
X230557Y27681D01*
Y26806D01*
X230892Y25997D01*
X231510Y25378D01*
X232319Y25043D01*
X233194D01*
X234003Y25378D01*
X234622Y25997D01*
X234957Y26806D01*
Y27681D01*
X234622Y28490D01*
X234003Y29108D01*
X233194Y29443D01*
D02*
G37*
G36*
X196938Y29200D02*
X196062D01*
X195254Y28865D01*
X194635Y28246D01*
X194300Y27438D01*
Y26562D01*
X194635Y25754D01*
X195254Y25135D01*
X196062Y24800D01*
X196938D01*
X197746Y25135D01*
X198365Y25754D01*
X198700Y26562D01*
Y27438D01*
X198365Y28246D01*
X197746Y28865D01*
X196938Y29200D01*
D02*
G37*
G36*
X246635Y29157D02*
X245759D01*
X244951Y28822D01*
X244332Y28203D01*
X243997Y27394D01*
Y26519D01*
X244332Y25710D01*
X244951Y25092D01*
X245759Y24757D01*
X246635D01*
X247443Y25092D01*
X248062Y25710D01*
X248397Y26519D01*
Y27394D01*
X248062Y28203D01*
X247443Y28822D01*
X246635Y29157D01*
D02*
G37*
G36*
X239942D02*
X239066D01*
X238258Y28822D01*
X237639Y28203D01*
X237304Y27394D01*
Y26519D01*
X237639Y25710D01*
X238258Y25092D01*
X239066Y24757D01*
X239942D01*
X240750Y25092D01*
X241369Y25710D01*
X241704Y26519D01*
Y27394D01*
X241369Y28203D01*
X240750Y28822D01*
X239942Y29157D01*
D02*
G37*
G36*
X79398Y22500D02*
X78602D01*
X77867Y22196D01*
X77305Y21633D01*
X77300Y21622D01*
X76700D01*
X76696Y21633D01*
X76133Y22196D01*
X75398Y22500D01*
X74602D01*
X73867Y22196D01*
X73304Y21633D01*
X73000Y20898D01*
Y20102D01*
X73304Y19367D01*
X73867Y18804D01*
X74602Y18500D01*
X75398D01*
X76133Y18804D01*
X76696Y19367D01*
X76700Y19378D01*
X77300D01*
X77305Y19367D01*
X77867Y18804D01*
X78602Y18500D01*
X79398D01*
X80133Y18804D01*
X80695Y19367D01*
X81000Y20102D01*
Y20898D01*
X80695Y21633D01*
X80133Y22196D01*
X79398Y22500D01*
D02*
G37*
G36*
X130938Y85200D02*
X130062D01*
X129254Y84865D01*
X128635Y84246D01*
X128300Y83438D01*
Y82562D01*
X128635Y81754D01*
X129254Y81135D01*
X130062Y80800D01*
X130938D01*
X131746Y81135D01*
X132365Y81754D01*
X132700Y82562D01*
Y83438D01*
X132365Y84246D01*
X131746Y84865D01*
X130938Y85200D01*
D02*
G37*
G36*
X259938Y84200D02*
X259062D01*
X258254Y83865D01*
X257635Y83246D01*
X257300Y82438D01*
Y81562D01*
X257635Y80754D01*
X258254Y80135D01*
X259062Y79800D01*
X259938D01*
X260746Y80135D01*
X261365Y80754D01*
X261700Y81562D01*
Y82438D01*
X261365Y83246D01*
X260746Y83865D01*
X259938Y84200D01*
D02*
G37*
G36*
X162938Y83200D02*
X162062D01*
X161254Y82865D01*
X160635Y82246D01*
X160300Y81438D01*
Y80562D01*
X160635Y79754D01*
X161254Y79135D01*
X162062Y78800D01*
X162938D01*
X163746Y79135D01*
X164365Y79754D01*
X164700Y80562D01*
Y81438D01*
X164365Y82246D01*
X163746Y82865D01*
X162938Y83200D01*
D02*
G37*
G36*
X168938Y79700D02*
X168062D01*
X167254Y79365D01*
X166635Y78746D01*
X166300Y77938D01*
Y77062D01*
X166635Y76254D01*
X167254Y75635D01*
X168062Y75300D01*
X168938D01*
X169746Y75635D01*
X170365Y76254D01*
X170700Y77062D01*
Y77938D01*
X170365Y78746D01*
X169746Y79365D01*
X168938Y79700D01*
D02*
G37*
G36*
X259938Y75700D02*
X259062D01*
X258254Y75365D01*
X257635Y74746D01*
X257300Y73938D01*
Y73062D01*
X257635Y72254D01*
X258254Y71635D01*
X259062Y71300D01*
X259938D01*
X260040Y71342D01*
X260499Y70883D01*
X260347Y70516D01*
Y69641D01*
X260682Y68832D01*
X261109Y68405D01*
X260682Y67979D01*
X260347Y67170D01*
Y66295D01*
X260682Y65486D01*
X261109Y65059D01*
X260682Y64632D01*
X260347Y63823D01*
Y62948D01*
X260682Y62140D01*
X261109Y61713D01*
X260682Y61286D01*
X260347Y60477D01*
Y59602D01*
X260682Y58793D01*
X261109Y58366D01*
X260682Y57939D01*
X260347Y57130D01*
Y56255D01*
X260682Y55447D01*
X261109Y55020D01*
X260682Y54593D01*
X260347Y53784D01*
Y52909D01*
X260682Y52100D01*
X261109Y51673D01*
X260682Y51246D01*
X260347Y50438D01*
Y49562D01*
X260682Y48754D01*
X261109Y48327D01*
X260682Y47900D01*
X260347Y47091D01*
Y46216D01*
X260682Y45407D01*
X261109Y44980D01*
X260682Y44553D01*
X260347Y43745D01*
Y42869D01*
X260682Y42061D01*
X261109Y41634D01*
X260682Y41207D01*
X260347Y40398D01*
Y39523D01*
X260682Y38714D01*
X261109Y38287D01*
X260682Y37860D01*
X260347Y37052D01*
Y36177D01*
X260682Y35368D01*
X261109Y34941D01*
X260682Y34514D01*
X260347Y33705D01*
Y32830D01*
X260682Y32021D01*
X261109Y31594D01*
X260682Y31168D01*
X260347Y30359D01*
Y29484D01*
X260682Y28675D01*
X261109Y28248D01*
X260682Y27821D01*
X260347Y27012D01*
Y26137D01*
X260682Y25329D01*
X261301Y24710D01*
X262110Y24375D01*
X262985D01*
X263793Y24710D01*
X264412Y25329D01*
X264747Y26137D01*
Y27012D01*
X264412Y27821D01*
X263985Y28248D01*
X264412Y28675D01*
X264747Y29484D01*
Y30359D01*
X264412Y31168D01*
X263985Y31594D01*
X264412Y32021D01*
X264747Y32830D01*
Y33705D01*
X264412Y34514D01*
X263985Y34941D01*
X264412Y35368D01*
X264747Y36177D01*
Y37052D01*
X264412Y37860D01*
X263985Y38287D01*
X264412Y38714D01*
X264747Y39523D01*
Y40398D01*
X264412Y41207D01*
X263985Y41634D01*
X264412Y42061D01*
X264747Y42869D01*
Y43745D01*
X264412Y44553D01*
X263985Y44980D01*
X264412Y45407D01*
X264747Y46216D01*
Y47091D01*
X264412Y47900D01*
X263985Y48327D01*
X264412Y48754D01*
X264747Y49562D01*
Y50438D01*
X264412Y51246D01*
X263985Y51673D01*
X264412Y52100D01*
X264747Y52909D01*
Y53784D01*
X264412Y54593D01*
X263985Y55020D01*
X264412Y55447D01*
X264747Y56255D01*
Y57130D01*
X264412Y57939D01*
X263985Y58366D01*
X264412Y58793D01*
X264747Y59602D01*
Y60477D01*
X264412Y61286D01*
X263985Y61713D01*
X264412Y62140D01*
X264747Y62948D01*
Y63823D01*
X264412Y64632D01*
X263985Y65059D01*
X264412Y65486D01*
X264747Y66295D01*
Y67170D01*
X264412Y67979D01*
X263985Y68405D01*
X264412Y68832D01*
X264747Y69641D01*
Y70516D01*
X264412Y71325D01*
X263985Y71752D01*
X264412Y72179D01*
X264747Y72988D01*
Y73863D01*
X264412Y74671D01*
X263793Y75290D01*
X262985Y75625D01*
X262110D01*
X261301Y75290D01*
X261061Y75050D01*
X260746Y75365D01*
X259938Y75700D01*
D02*
G37*
%LPD*%
G36*
X260169Y74501D02*
X260340Y74329D01*
X260340D01*
Y74329D01*
X260504Y74220D01*
X260671Y74108D01*
X260671D01*
X260671Y74108D01*
X260906Y74062D01*
X261061Y74031D01*
X261061D01*
X261061D01*
X261191Y74056D01*
X261451Y74108D01*
X261782Y74329D01*
Y74329D01*
X261782D01*
X261879Y74426D01*
X262312Y74606D01*
X262782D01*
X263169Y74445D01*
X263567Y74046D01*
X263728Y73660D01*
Y73190D01*
X263548Y72757D01*
X263264Y72473D01*
X263043Y72142D01*
X262966Y71752D01*
X263043Y71362D01*
X263264Y71031D01*
X263548Y70747D01*
X263728Y70314D01*
Y69844D01*
X263548Y69410D01*
X263264Y69126D01*
X263043Y68796D01*
X262966Y68405D01*
X263043Y68015D01*
X263264Y67685D01*
X263548Y67401D01*
X263728Y66967D01*
Y66497D01*
X263548Y66064D01*
X263264Y65780D01*
X263043Y65449D01*
X262981Y65137D01*
X262966Y65059D01*
Y65059D01*
D01*
X263043Y64669D01*
X263264Y64338D01*
X263264Y64338D01*
X263548Y64055D01*
X263728Y63621D01*
Y63151D01*
X263548Y62717D01*
X263264Y62434D01*
X263043Y62103D01*
X262966Y61713D01*
X263043Y61322D01*
X263264Y60992D01*
X263548Y60708D01*
X263728Y60274D01*
Y59805D01*
X263548Y59371D01*
X263264Y59087D01*
X263043Y58756D01*
X262966Y58366D01*
X263043Y57976D01*
X263264Y57645D01*
X263548Y57362D01*
X263728Y56928D01*
Y56458D01*
X263548Y56024D01*
X263264Y55741D01*
X263191Y55631D01*
X263043Y55410D01*
X262966Y55020D01*
D01*
Y55020D01*
X262981Y54942D01*
X263043Y54629D01*
X263264Y54299D01*
X263548Y54015D01*
X263728Y53581D01*
Y53112D01*
X263548Y52678D01*
X263264Y52394D01*
X263043Y52063D01*
X262966Y51673D01*
X263043Y51283D01*
X263264Y50952D01*
X263548Y50669D01*
X263728Y50235D01*
Y49765D01*
X263548Y49331D01*
X263264Y49048D01*
X263043Y48717D01*
X262966Y48327D01*
X263043Y47937D01*
X263264Y47606D01*
X263548Y47322D01*
X263728Y46888D01*
Y46419D01*
X263548Y45985D01*
X263264Y45701D01*
X263043Y45371D01*
X262981Y45058D01*
X262966Y44980D01*
Y44980D01*
D01*
X263043Y44590D01*
X263264Y44259D01*
X263264Y44259D01*
X263548Y43976D01*
X263728Y43542D01*
Y43072D01*
X263548Y42638D01*
X263264Y42355D01*
X263043Y42024D01*
X262966Y41634D01*
X263043Y41244D01*
X263264Y40913D01*
X263548Y40629D01*
X263728Y40195D01*
Y39726D01*
X263548Y39292D01*
X263264Y39008D01*
X263043Y38678D01*
X262966Y38287D01*
X263043Y37897D01*
X263264Y37566D01*
X263548Y37283D01*
X263728Y36849D01*
Y36379D01*
X263548Y35945D01*
X263264Y35662D01*
X263191Y35552D01*
X263043Y35331D01*
X262966Y34941D01*
D01*
Y34941D01*
X262981Y34863D01*
X263043Y34551D01*
X263264Y34220D01*
X263548Y33936D01*
X263728Y33503D01*
Y33033D01*
X263548Y32599D01*
X263264Y32315D01*
X263043Y31985D01*
X262966Y31594D01*
X263043Y31204D01*
X263264Y30874D01*
X263548Y30590D01*
X263728Y30156D01*
Y29686D01*
X263548Y29253D01*
X263264Y28969D01*
X263043Y28638D01*
X262966Y28248D01*
X263043Y27858D01*
X263264Y27527D01*
X263548Y27244D01*
X263728Y26810D01*
Y26340D01*
X263548Y25906D01*
X263216Y25574D01*
X262782Y25394D01*
X262312D01*
X261879Y25574D01*
X261546Y25906D01*
X261367Y26340D01*
Y26810D01*
X261546Y27244D01*
X261830Y27527D01*
X262051Y27858D01*
X262129Y28248D01*
X262051Y28638D01*
X261830Y28969D01*
X261546Y29253D01*
X261367Y29686D01*
Y30156D01*
X261546Y30590D01*
X261830Y30874D01*
X262051Y31204D01*
X262129Y31594D01*
X262051Y31985D01*
X261830Y32315D01*
X261546Y32599D01*
X261367Y33033D01*
Y33503D01*
X261546Y33936D01*
X261830Y34220D01*
X262051Y34551D01*
X262113Y34863D01*
X262129Y34941D01*
Y34941D01*
D01*
X262051Y35331D01*
X261830Y35662D01*
X261830Y35662D01*
X261546Y35945D01*
X261367Y36379D01*
Y36849D01*
X261546Y37283D01*
X261830Y37566D01*
X262051Y37897D01*
X262129Y38287D01*
X262051Y38678D01*
X261830Y39008D01*
X261546Y39292D01*
X261367Y39726D01*
Y40195D01*
X261546Y40629D01*
X261830Y40913D01*
X262051Y41244D01*
X262129Y41634D01*
X262051Y42024D01*
X261830Y42355D01*
X261546Y42638D01*
X261367Y43072D01*
Y43542D01*
X261546Y43976D01*
X261830Y44259D01*
X261904Y44369D01*
X262051Y44590D01*
X262129Y44980D01*
D01*
Y44980D01*
X262113Y45058D01*
X262051Y45371D01*
X261830Y45701D01*
X261546Y45985D01*
X261367Y46419D01*
Y46888D01*
X261546Y47322D01*
X261830Y47606D01*
X262051Y47937D01*
X262129Y48327D01*
X262051Y48717D01*
X261830Y49048D01*
X261546Y49331D01*
X261367Y49765D01*
Y50235D01*
X261546Y50669D01*
X261830Y50952D01*
X262051Y51283D01*
X262129Y51673D01*
X262051Y52063D01*
X261830Y52394D01*
X261546Y52678D01*
X261367Y53112D01*
Y53581D01*
X261546Y54015D01*
X261830Y54299D01*
X262051Y54629D01*
X262113Y54942D01*
X262129Y55020D01*
Y55020D01*
D01*
X262051Y55410D01*
X261830Y55741D01*
X261830Y55741D01*
X261546Y56024D01*
X261367Y56458D01*
Y56928D01*
X261546Y57362D01*
X261830Y57645D01*
X262051Y57976D01*
X262129Y58366D01*
X262051Y58756D01*
X261830Y59087D01*
X261546Y59371D01*
X261367Y59805D01*
Y60274D01*
X261546Y60708D01*
X261830Y60992D01*
X262051Y61322D01*
X262129Y61713D01*
X262051Y62103D01*
X261830Y62434D01*
X261546Y62717D01*
X261367Y63151D01*
Y63621D01*
X261546Y64055D01*
X261830Y64338D01*
X261904Y64448D01*
X262051Y64669D01*
X262129Y65059D01*
D01*
Y65059D01*
X262113Y65137D01*
X262051Y65449D01*
X261830Y65780D01*
X261546Y66064D01*
X261367Y66497D01*
Y66967D01*
X261546Y67401D01*
X261830Y67685D01*
X262051Y68015D01*
X262129Y68405D01*
X262051Y68796D01*
X261830Y69126D01*
X261546Y69410D01*
X261367Y69844D01*
Y70314D01*
X261441Y70493D01*
Y70493D01*
X261441Y70493D01*
X261488Y70728D01*
X261519Y70883D01*
Y70883D01*
Y70883D01*
X261488Y71038D01*
X261441Y71273D01*
X261441Y71273D01*
Y71273D01*
X261367Y71385D01*
X261220Y71604D01*
X261220Y71604D01*
X261220Y71604D01*
X260761Y72063D01*
X260430Y72284D01*
X260040Y72362D01*
X259827Y72320D01*
X259265D01*
X258831Y72499D01*
X258499Y72831D01*
X258320Y73265D01*
Y73735D01*
X258499Y74169D01*
X258831Y74501D01*
X259265Y74680D01*
X259735D01*
X260169Y74501D01*
D02*
G37*
D52*
X22500Y5000D02*
D03*
Y39016D02*
D03*
Y60984D02*
D03*
Y95000D02*
D03*
D54*
X6752Y5000D02*
D03*
Y39016D02*
D03*
Y60984D02*
D03*
Y95000D02*
D03*
D63*
X249500Y89000D02*
X253500D01*
X263800Y19826D02*
X266500Y22525D01*
X265000Y5000D02*
X266500Y6500D01*
X263800Y17175D02*
Y19826D01*
X266500Y6500D02*
Y14475D01*
X263800Y17175D02*
X266500Y14475D01*
Y22525D02*
Y73998D01*
X262498Y78000D02*
X266500Y73998D01*
X258500Y78000D02*
X262498D01*
X253000Y83500D02*
X258500Y78000D01*
X253000Y83500D02*
Y84500D01*
D65*
X35000Y5000D02*
D03*
X45000Y95000D02*
D03*
X255000Y5000D02*
D03*
Y95000D02*
D03*
X75000Y5000D02*
D03*
X65000D02*
D03*
X55000Y95000D02*
D03*
X35000D02*
D03*
X65000D02*
D03*
X75000D02*
D03*
X85000D02*
D03*
X95000D02*
D03*
X105000D02*
D03*
X115000D02*
D03*
X125000D02*
D03*
X135000D02*
D03*
X145000D02*
D03*
X155000D02*
D03*
X165000D02*
D03*
X175000D02*
D03*
X185000D02*
D03*
X195000D02*
D03*
X205000D02*
D03*
X215000D02*
D03*
X225000D02*
D03*
X235000D02*
D03*
X245000D02*
D03*
X45000Y5000D02*
D03*
X55000D02*
D03*
X85000D02*
D03*
X95000D02*
D03*
X105000D02*
D03*
X115000D02*
D03*
X125000D02*
D03*
X135000D02*
D03*
X145000D02*
D03*
X155000D02*
D03*
X165000D02*
D03*
X175000D02*
D03*
X185000D02*
D03*
X195000D02*
D03*
X205000D02*
D03*
X215000D02*
D03*
X225000D02*
D03*
X235000D02*
D03*
X245000D02*
D03*
D66*
X265000Y95000D02*
D03*
Y5000D02*
D03*
D67*
X137500Y50000D02*
D03*
D68*
X142500D02*
D03*
X37500D02*
D03*
Y45000D02*
D03*
D69*
Y55000D02*
D03*
D70*
X72500Y80000D02*
D03*
X68500Y76000D02*
D03*
Y80000D02*
D03*
X72500Y76000D02*
D03*
X64200Y69300D02*
D03*
X80000Y85000D02*
D03*
X229000Y44000D02*
D03*
X239500Y40000D02*
D03*
X229000Y50000D02*
D03*
X236253Y53280D02*
D03*
X242741Y46723D02*
D03*
X236259Y46772D02*
D03*
X242761Y53233D02*
D03*
X229000Y56500D02*
D03*
X239500Y60500D02*
D03*
X256236Y26957D02*
D03*
X252890D02*
D03*
X262547Y29921D02*
D03*
Y36614D02*
D03*
X249500Y43500D02*
D03*
X262547Y39961D02*
D03*
X249500Y50000D02*
D03*
X262547Y46654D02*
D03*
Y50000D02*
D03*
Y26575D02*
D03*
Y33268D02*
D03*
Y43307D02*
D03*
X249500Y56500D02*
D03*
X262547Y60039D02*
D03*
Y53347D02*
D03*
Y63386D02*
D03*
Y66732D02*
D03*
X259500Y73500D02*
D03*
X262547Y56693D02*
D03*
Y70079D02*
D03*
Y73425D02*
D03*
X259500Y82000D02*
D03*
X245000Y89000D02*
D03*
X267000Y18500D02*
D03*
X203000Y22500D02*
D03*
X168500Y21000D02*
D03*
X161500Y15000D02*
D03*
X155500Y42500D02*
D03*
X205000Y73500D02*
D03*
X161500Y62500D02*
D03*
X162500Y81000D02*
D03*
X130500Y83000D02*
D03*
X96000Y79000D02*
D03*
X79500Y59000D02*
D03*
Y54000D02*
D03*
X64500Y54500D02*
D03*
X73000Y65500D02*
D03*
X48000Y68500D02*
D03*
X47500Y85500D02*
D03*
X69500Y89000D02*
D03*
X124000Y40500D02*
D03*
X117000Y32000D02*
D03*
X102000D02*
D03*
X112000D02*
D03*
X107000D02*
D03*
Y39000D02*
D03*
X112000D02*
D03*
X102000D02*
D03*
X117000D02*
D03*
X97500D02*
D03*
X107000Y45500D02*
D03*
X112000D02*
D03*
X102000D02*
D03*
X117000D02*
D03*
X97500D02*
D03*
X55500Y29000D02*
D03*
X59500D02*
D03*
X51500D02*
D03*
X30000Y9500D02*
D03*
X37000Y24000D02*
D03*
X49500Y33000D02*
D03*
X29000Y40000D02*
D03*
X32000Y43500D02*
D03*
X37000Y16000D02*
D03*
X97500Y32000D02*
D03*
X82000Y17500D02*
D03*
X206500Y45400D02*
D03*
X206600Y51500D02*
D03*
X185500Y54000D02*
D03*
X37000Y74000D02*
D03*
X36000Y85500D02*
D03*
X48000Y82000D02*
D03*
X45000Y72500D02*
D03*
X29000Y62500D02*
D03*
X32000Y58500D02*
D03*
X29500Y90500D02*
D03*
X94000Y59500D02*
D03*
Y55000D02*
D03*
X50500Y59000D02*
D03*
X44800Y27500D02*
D03*
X44600Y12900D02*
D03*
X72000Y17500D02*
D03*
X191000Y66000D02*
D03*
X183500Y47500D02*
D03*
X76000Y88000D02*
D03*
X149000Y64000D02*
D03*
X156000Y61000D02*
D03*
X89000Y71500D02*
D03*
X187500Y48000D02*
D03*
Y51500D02*
D03*
X44600Y18100D02*
D03*
X190500Y71500D02*
D03*
X201000Y64000D02*
D03*
X174500Y61500D02*
D03*
X172000Y58500D02*
D03*
X253500Y89000D02*
D03*
X181700Y75600D02*
D03*
X249500Y89000D02*
D03*
X95500Y84500D02*
D03*
X80000Y47500D02*
D03*
X75000Y20500D02*
D03*
X79000D02*
D03*
X44600Y22600D02*
D03*
X202100Y44800D02*
D03*
X60000Y50000D02*
D03*
X31500Y77500D02*
D03*
X35500Y78500D02*
D03*
X48701Y74000D02*
D03*
X49000Y78000D02*
D03*
X198500Y39500D02*
D03*
X203000Y51500D02*
D03*
X57000Y16500D02*
D03*
X52500D02*
D03*
X48000D02*
D03*
X150000Y52500D02*
D03*
X164500Y59286D02*
D03*
X185000Y67500D02*
D03*
X190000Y75500D02*
D03*
X180500Y42000D02*
D03*
X196500Y27000D02*
D03*
X209000Y33000D02*
D03*
X168500Y77500D02*
D03*
X188000Y39500D02*
D03*
X206000Y40000D02*
D03*
X232757Y27243D02*
D03*
X219500Y27500D02*
D03*
X226000D02*
D03*
X249547Y32000D02*
D03*
X246197Y26957D02*
D03*
X246193Y68000D02*
D03*
X216079Y73043D02*
D03*
X216083Y32000D02*
D03*
X239504Y26957D02*
D03*
X242854Y32000D02*
D03*
X236161D02*
D03*
X229468D02*
D03*
X222776D02*
D03*
X222772Y73043D02*
D03*
X219421Y68000D02*
D03*
X229465Y73043D02*
D03*
X226114Y68000D02*
D03*
X236157Y73043D02*
D03*
X232807Y68000D02*
D03*
X239500D02*
D03*
X242850Y73043D02*
D03*
X249543D02*
D03*
D71*
X253500Y87000D02*
Y89000D01*
X254541Y90041D01*
Y94541D01*
X253000Y86500D02*
X253500Y87000D01*
X253000Y84500D02*
Y86500D01*
X188100Y82000D02*
X250500D01*
X179400Y73300D02*
X188100Y82000D01*
X142500Y73300D02*
X179400D01*
X80000Y47500D02*
Y48560D01*
X83700Y52260D01*
Y72700D01*
X95500Y84500D01*
X123060D01*
X134260Y73300D01*
X142500D01*
Y50000D02*
Y73300D01*
X250500Y82000D02*
X253000Y84500D01*
X254541Y94541D02*
X255000Y95000D01*
X57000Y16500D02*
X60500Y13000D01*
X103940D01*
X130000Y39060D01*
Y47000D01*
X133000Y50000D01*
X137500D01*
M02*
