G04*
G04 #@! TF.GenerationSoftware,Altium Limited,Altium Designer,25.8.1 (18)*
G04*
G04 Layer_Physical_Order=4*
G04 Layer_Color=16711680*
%FSLAX25Y25*%
%MOIN*%
G70*
G04*
G04 #@! TF.SameCoordinates,84CAB14F-A09E-4842-903A-F773CCEDBAE3*
G04*
G04*
G04 #@! TF.FilePolarity,Positive*
G04*
G01*
G75*
%ADD10C,0.01000*%
%ADD12C,0.00600*%
G04:AMPARAMS|DCode=52|XSize=39.37mil|YSize=70.87mil|CornerRadius=19.68mil|HoleSize=0mil|Usage=FLASHONLY|Rotation=270.000|XOffset=0mil|YOffset=0mil|HoleType=Round|Shape=RoundedRectangle|*
%AMROUNDEDRECTD52*
21,1,0.03937,0.03150,0,0,270.0*
21,1,0.00000,0.07087,0,0,270.0*
1,1,0.03937,-0.01575,0.00000*
1,1,0.03937,-0.01575,0.00000*
1,1,0.03937,0.01575,0.00000*
1,1,0.03937,0.01575,0.00000*
%
%ADD52ROUNDEDRECTD52*%
G04:AMPARAMS|DCode=54|XSize=39.37mil|YSize=86.61mil|CornerRadius=19.68mil|HoleSize=0mil|Usage=FLASHONLY|Rotation=270.000|XOffset=0mil|YOffset=0mil|HoleType=Round|Shape=RoundedRectangle|*
%AMROUNDEDRECTD54*
21,1,0.03937,0.04724,0,0,270.0*
21,1,0.00000,0.08661,0,0,270.0*
1,1,0.03937,-0.02362,0.00000*
1,1,0.03937,-0.02362,0.00000*
1,1,0.03937,0.02362,0.00000*
1,1,0.03937,0.02362,0.00000*
%
%ADD54ROUNDEDRECTD54*%
%ADD60C,0.00603*%
%ADD65C,0.06400*%
%ADD66R,0.06400X0.06400*%
%ADD67R,0.04000X0.04000*%
%ADD68C,0.04000*%
%ADD69R,0.04000X0.04000*%
%ADD70C,0.02400*%
%ADD71C,0.04000*%
%ADD78C,0.01000*%
D10*
X174509Y86491D02*
G03*
X174542Y86490I174J4697D01*
G01*
X77649Y90567D02*
G03*
X77702Y90479I9495J5674D01*
G01*
X213185Y20499D02*
G03*
X213186Y20500I-619J786D01*
G01*
X211939Y8566D02*
G03*
X211924Y8553I3062J-3566D01*
G01*
X216499Y12500D02*
X216500Y12500D01*
D12*
X76300Y88300D02*
X81700D01*
X76000Y88000D02*
X76300Y88300D01*
X81700D02*
X90488Y79512D01*
Y79512D02*
X90500Y74786D01*
X90488Y79512D02*
Y79512D01*
X109343Y64000D02*
X149000D01*
X99143Y74200D02*
X109343Y64000D01*
X90500Y74786D02*
X91086Y74200D01*
X91500Y74200D02*
X99143D01*
X91086Y74200D02*
X91500Y74200D01*
X109515Y61000D02*
X156000D01*
X99015Y71500D02*
X109515Y61000D01*
X89000Y71500D02*
X99015D01*
X242269Y22500D02*
X242854Y23086D01*
Y32000D01*
X239672Y22500D02*
X242269D01*
X229672Y12500D02*
X239672Y22500D01*
X216500Y12500D02*
X229672D01*
X249547Y17547D02*
Y32000D01*
X237900Y14547D02*
X246547D01*
X249547Y17547D01*
X242000Y17000D02*
X246197Y21197D01*
Y26957D01*
X237000Y17000D02*
X242000D01*
X230500Y10500D02*
X237000Y17000D01*
X231677Y8323D02*
X237900Y14547D01*
X228323Y8323D02*
X231677D01*
X257500Y11000D02*
X259000Y12500D01*
X251000Y11000D02*
X257500D01*
X245000Y5000D02*
X251000Y11000D01*
X259000Y12500D02*
Y28011D01*
X250011Y37000D02*
X259000Y28011D01*
X207500Y58500D02*
X229000Y37000D01*
X250011D01*
X179818Y58500D02*
X207500D01*
X177118Y55800D02*
X179818Y58500D01*
X153300Y55800D02*
X177118D01*
X206201Y64000D02*
X242193D01*
X246193Y68000D01*
X191901Y78300D02*
X206201Y64000D01*
X229465Y73043D02*
Y80535D01*
X227700Y82300D02*
X229465Y80535D01*
X218872Y82300D02*
X227700D01*
X232807Y68000D02*
Y80693D01*
X229200Y84300D02*
X232807Y80693D01*
X219700Y84300D02*
X229200D01*
X236157Y73043D02*
Y82342D01*
X221041Y86300D02*
X232200D01*
X236157Y82342D01*
X234200Y88300D02*
X239500Y83000D01*
X223114Y88300D02*
X234200D01*
X239500Y68000D02*
Y83000D01*
X235700Y90300D02*
X242850Y83150D01*
Y73043D02*
Y83150D01*
X224113Y90300D02*
X235700D01*
X223700Y90300D02*
X224113Y90300D01*
X215000Y95000D02*
X223700Y90300D01*
X195000Y95000D02*
X201700Y88300D01*
X218506D01*
X218920Y88300D01*
X220720Y86500D01*
X196871Y90300D02*
X200872Y86300D01*
X217700D01*
X196043Y88300D02*
X200043Y84300D01*
X216872D01*
X195215Y86300D02*
X199215Y82300D01*
X216043D01*
X165000Y95000D02*
X173193Y86807D01*
X174542Y86490D02*
X180871Y86300D01*
X195215D01*
X173193Y86807D02*
X173471Y86529D01*
X174509Y86491D01*
X194386Y84300D02*
X198386Y80300D01*
X215200D01*
X167172Y90000D02*
X172351Y84820D01*
X172631Y84541D02*
X180043Y84300D01*
X194386D01*
X172351Y84820D02*
X172631Y84541D01*
X193558Y82300D02*
X197558Y78300D01*
X214372D01*
X166343Y88000D02*
X171553Y82790D01*
X171835Y82509D02*
X179215Y82300D01*
X171553Y82790D02*
X171835Y82509D01*
X179215Y82300D02*
X193558D01*
X165515Y86000D02*
X170725Y80790D01*
X178386Y80300D02*
X192729D01*
X170725Y80790D02*
X171006Y80509D01*
X178386Y80300D01*
X192729D02*
X196730Y76300D01*
X210858D01*
X140255Y89788D02*
X144097Y86000D01*
X165515D01*
X139981Y90057D02*
X140255Y89788D01*
X125000Y95000D02*
X136000Y84000D01*
X164500D01*
X105000Y5000D02*
X116000Y16000D01*
X147000D02*
X163200Y32200D01*
X116000Y16000D02*
X147000D01*
X109000Y19000D02*
X147172D01*
X162372Y34200D01*
X95000Y5000D02*
X109000Y19000D01*
X102500Y22500D02*
X147800D01*
X161500Y36200D01*
X85000Y5000D02*
X102500Y22500D01*
X84200Y9700D02*
X100500Y26000D01*
X148300D02*
X160300Y38000D01*
X100500Y26000D02*
X148300D01*
X150200Y7700D02*
X166700Y24200D01*
X187618D01*
X192118Y19700D01*
X205223D01*
X59700Y9700D02*
X84200D01*
X97500Y29000D02*
X146000D01*
X159000Y42000D02*
X180500D01*
X146000Y29000D02*
X159000Y42000D01*
X80200Y11700D02*
X97500Y29000D01*
X51700Y11700D02*
X80200D01*
X178300Y64200D02*
X180000Y62500D01*
X199500D01*
X169496Y64200D02*
X178300D01*
X165500Y76682D02*
X169882Y72300D01*
X187034D01*
X188921Y70300D02*
X190121Y71500D01*
X190500D01*
X169053Y70300D02*
X188921D01*
X158328Y75368D02*
X169496Y64200D01*
X199500Y62500D02*
X201000Y64000D01*
X169368Y61500D02*
X174500D01*
X169300Y58700D02*
X171800D01*
X157000Y71000D02*
X169300Y58700D01*
X171800D02*
X172000Y58500D01*
X82112Y90100D02*
X90472Y82820D01*
X90870Y82423D01*
X78081Y90100D02*
X82112D01*
X77788Y90393D02*
X78081Y90100D01*
X77702Y90479D02*
X77788Y90393D01*
X75000Y95000D02*
X77649Y90567D01*
X90870Y82423D02*
X93300Y77882D01*
X99872Y76300D02*
X99875Y76297D01*
X94882Y76300D02*
X99872D01*
X93300Y77882D02*
X94882Y76300D01*
X99875Y76297D02*
X100164Y76007D01*
X85823Y92995D02*
X92800Y86018D01*
X85823Y92995D02*
Y94177D01*
X107132Y73368D02*
X157500D01*
X92800Y83382D02*
Y86018D01*
X98700Y81800D02*
X107132Y73368D01*
X94382Y81800D02*
X98700D01*
X92800Y83382D02*
X94382Y81800D01*
X85000Y95000D02*
X85823Y94177D01*
X57400Y65057D02*
Y87400D01*
Y65057D02*
X64457Y58000D01*
X74682D01*
X57400Y87400D02*
X65000Y95000D01*
X78882Y62200D02*
X95118D01*
X74682Y58000D02*
X78882Y62200D01*
X95118D02*
X99318Y58000D01*
X163214D01*
X164500Y59286D01*
X150000Y52500D02*
X153300Y55800D01*
X197407Y38028D02*
X198500Y39121D01*
X196700Y36200D02*
X197407Y36907D01*
X198500Y39121D02*
Y39500D01*
X197407Y36907D02*
Y38028D01*
X161500Y36200D02*
X196700D01*
X100164Y76007D02*
X104804Y71368D01*
X105500Y71000D02*
X105914Y71000D01*
X104804Y71368D02*
X105500Y71000D01*
X105914Y71000D02*
X157000D01*
X115000Y79954D02*
Y95000D01*
X115586Y79368D02*
X159985D01*
X115000Y79954D02*
X115586Y79368D01*
X159985D02*
X169053Y70300D01*
X159157Y77368D02*
X169025Y67500D01*
X105000Y81828D02*
X109460Y77368D01*
X159157D01*
X95000Y89000D02*
X108632Y75368D01*
X158328D01*
X105000Y81828D02*
Y95000D01*
X95000Y89000D02*
Y95000D01*
X157500Y73368D02*
X169368Y61500D01*
X169025Y67500D02*
X185000D01*
X190000Y75265D02*
Y75500D01*
X187034Y72300D02*
X190000Y75265D01*
X200077Y32200D02*
X200877Y33000D01*
X163200Y32200D02*
X200077D01*
X200877Y33000D02*
X209000D01*
X139715Y90324D02*
X139981Y90057D01*
X135039Y95000D02*
X139715Y90324D01*
X135000Y95000D02*
X135039D01*
X145000D02*
X152100Y88000D01*
X166343D01*
X214372Y78300D02*
X216372Y76300D01*
X218835D01*
X217200Y78300D02*
X222186D01*
X215200Y80300D02*
X217200Y78300D01*
X160628Y90000D02*
X167172D01*
X218043Y80300D02*
X225500D01*
X216043Y82300D02*
X218043Y80300D01*
X216872Y84300D02*
X218872Y82300D01*
X217700Y86300D02*
X219700Y84300D01*
X220720Y86500D02*
X221041Y86300D01*
X219492Y90300D02*
X222700Y88300D01*
X223114Y88300D01*
X209700Y90300D02*
X219492D01*
X165500Y76682D02*
Y83000D01*
X164500Y84000D02*
X165500Y83000D01*
X155000Y95000D02*
X159937Y90277D01*
X160227Y90000D02*
X160628Y90000D01*
X159937Y90277D02*
X160227Y90000D01*
X168500Y77500D02*
X168879D01*
X169679Y78300D02*
X191901D01*
X168879Y77500D02*
X169679Y78300D01*
X45000Y5000D02*
X51700Y11700D01*
X55000Y5000D02*
X59700Y9700D01*
X160300Y38000D02*
X160472D01*
X186700Y38200D02*
X188000Y39500D01*
X160472Y38000D02*
X160672Y38200D01*
X186700D01*
X205841Y39841D02*
X206000Y40000D01*
X198700Y34200D02*
X204341Y39841D01*
X162372Y34200D02*
X198700D01*
X204341Y39841D02*
X205841D01*
X165700Y26200D02*
X188447D01*
X149200Y9700D02*
X165700Y26200D01*
X188447D02*
X192947Y21700D01*
X164872Y28200D02*
X189275D01*
X148372Y11700D02*
X164872Y28200D01*
X147543Y13700D02*
X164043Y30200D01*
X190104D01*
X193304Y27000D01*
X115000Y5000D02*
X123700Y13700D01*
X147543D01*
X193304Y27000D02*
X196500D01*
X189275Y28200D02*
X193775Y23700D01*
X197553D02*
X202353Y28500D01*
X193775Y23700D02*
X197553D01*
X149700Y7700D02*
X150200D01*
X146033Y6033D02*
X148033D01*
X149700Y7700D01*
X145000Y5000D02*
X146033Y6033D01*
X202353Y28500D02*
X215229D01*
X215815Y29086D01*
Y31732D01*
X198382Y21700D02*
X203182Y26500D01*
X218214D01*
X192947Y21700D02*
X198382D01*
X218214Y26500D02*
X219214Y27500D01*
X219500D01*
X135017Y11664D02*
X135053Y11700D01*
X127318Y8500D02*
X130482Y11664D01*
X135017D01*
X127318Y8500D02*
X127318D01*
X125000Y6182D02*
X127318Y8500D01*
X135053Y11700D02*
X148372D01*
X139700Y9700D02*
X149200D01*
X125000Y5000D02*
Y6182D01*
X215815Y31732D02*
X216083Y32000D01*
X135000Y5000D02*
X139700Y9700D01*
X205223Y19700D02*
X205223Y19700D01*
X205429D01*
X210229Y24500D01*
X211500D01*
X211500Y24500D01*
X222000D01*
X232757Y24257D02*
Y27243D01*
X227000Y18500D02*
X232757Y24257D01*
X226000Y27500D02*
X226118Y27382D01*
Y23447D02*
Y27382D01*
X212358Y22500D02*
X215000Y22500D01*
X206258Y17700D02*
X212358Y22500D01*
X206051Y17700D02*
X206258Y17700D01*
X215000Y22500D02*
X225172D01*
X168018Y17700D02*
X206051D01*
X213186Y20500D02*
X215000Y20500D01*
X207091Y15700D02*
X213185Y20499D01*
X215000Y20500D02*
X226000D01*
X207086Y15700D02*
X207091Y15700D01*
X175700Y15700D02*
X207086D01*
X214015Y18500D02*
X227000D01*
X207919Y13700D02*
X208159Y13700D01*
X183700Y13700D02*
X207919D01*
X208159Y13700D02*
X214015Y18500D01*
X214843Y16500D02*
X228000D01*
X208992Y11700D02*
X214843Y16500D01*
X208988Y11700D02*
X208992Y11700D01*
X191700Y11700D02*
X208988D01*
X215671Y14500D02*
X228843D01*
X209821Y9700D02*
X210195Y9700D01*
X199700Y9700D02*
X209821D01*
X210195Y9700D02*
X215671Y14500D01*
X207846Y5000D02*
X211924Y8553D01*
X205000Y5000D02*
X207846D01*
X211939Y8566D02*
X216499Y12500D01*
X222000Y24500D02*
X222776Y25276D01*
Y32000D01*
X155000Y5000D02*
X155318D01*
X168018Y17700D01*
X225172Y22500D02*
X226118Y23447D01*
X165000Y5000D02*
X175700Y15700D01*
X226000Y20500D02*
X229468Y23968D01*
Y32000D01*
X175000Y5000D02*
X183700Y13700D01*
X185000Y5000D02*
X191700Y11700D01*
X228000Y16500D02*
X236161Y24661D01*
Y32000D01*
X195000Y5000D02*
X199700Y9700D01*
X228843Y14500D02*
X238843Y24500D01*
X238918D01*
X239504Y25086D01*
Y26957D01*
X215000Y5000D02*
X220500Y10500D01*
X230500D01*
X225000Y5000D02*
X228323Y8323D01*
X210858Y76300D02*
X213847Y73311D01*
X215811D01*
X216079Y73043D01*
X218835Y76300D02*
X219421Y75714D01*
Y68000D02*
Y75714D01*
X222186Y78300D02*
X222772Y77714D01*
Y73043D02*
Y77714D01*
X225500Y80300D02*
X226114Y79686D01*
Y68000D02*
Y79686D01*
X175000Y95000D02*
X181700Y88300D01*
X196043D01*
X185000Y95000D02*
X189700Y90300D01*
X196871D01*
X205000Y95000D02*
X209700Y90300D01*
X235000Y95000D02*
X249543Y80457D01*
Y73043D02*
Y80457D01*
D52*
X22500Y5000D02*
D03*
Y39016D02*
D03*
Y60984D02*
D03*
Y95000D02*
D03*
D54*
X6752Y5000D02*
D03*
Y39016D02*
D03*
Y60984D02*
D03*
Y95000D02*
D03*
D60*
X171586Y50301D02*
X183953D01*
X185168Y49087D01*
X172167Y51705D02*
X184534D01*
X187258Y51500D02*
X187500D01*
X185168Y49087D02*
X186209D01*
X187297Y48000D02*
X187500D01*
X186248Y50490D02*
X187258Y51500D01*
X185749Y50490D02*
X186248D01*
X184534Y51705D02*
X185749Y50490D01*
X186209Y49087D02*
X187297Y48000D01*
X118717Y41298D02*
X120296Y39720D01*
X122466Y36795D02*
X128798D01*
X129502Y37500D01*
X143032D01*
X120296Y38966D02*
Y39720D01*
Y38966D02*
X122466Y36795D01*
X143032Y37500D02*
X156080Y50548D01*
X118416Y41600D02*
Y41600D01*
X118717Y41298D02*
X118717D01*
X118416Y41600D02*
X118717Y41298D01*
X88100Y41600D02*
X118416D01*
X171339Y50548D02*
X171586Y50301D01*
X156080Y50548D02*
X171339D01*
X66049Y19548D02*
X88100Y41600D01*
X44600Y18271D02*
X45977Y19648D01*
X44600Y18100D02*
Y18271D01*
X45977Y19648D02*
X46477D01*
X46577Y19548D02*
X66049D01*
X46477Y19648D02*
X46577Y19548D01*
X77701Y25717D02*
X86286Y34301D01*
X76298Y26298D02*
X85704Y35704D01*
X76298Y21799D02*
Y26298D01*
X77701Y21799D02*
Y25717D01*
X75000Y20500D02*
X76298Y21799D01*
X85704Y35704D02*
X118534D01*
X77701Y21799D02*
X79000Y20500D01*
X47158Y20952D02*
X65467D01*
X45977Y21052D02*
X47058D01*
X44600Y22429D02*
X45977Y21052D01*
X44600Y22429D02*
Y22600D01*
X47058Y21052D02*
X47158Y20952D01*
X200424Y43500D02*
X201724Y44800D01*
X202100D01*
X198657Y45000D02*
X203000Y49343D01*
X182255Y43500D02*
X200424D01*
X43280Y82205D02*
X44929Y80555D01*
X34244Y82205D02*
X43280D01*
X34825Y80801D02*
X42698D01*
X32659Y80620D02*
X34244Y82205D01*
X42698Y80801D02*
X43526Y79974D01*
Y78513D02*
Y79974D01*
X44929Y79094D02*
Y80555D01*
Y79094D02*
X47322Y76701D01*
X43526Y78513D02*
X46741Y75299D01*
X47822Y76701D02*
X49000Y77880D01*
X47322Y76701D02*
X47822D01*
X49000Y77880D02*
Y78000D01*
X32659Y78752D02*
Y80620D01*
X31500Y77593D02*
X32659Y78752D01*
X31500Y77500D02*
Y77593D01*
X49000Y74000D02*
Y74120D01*
X47822Y75299D02*
X49000Y74120D01*
X46741Y75299D02*
X47822D01*
X35101Y78500D02*
X35500D01*
X34062Y79539D02*
Y80038D01*
Y79539D02*
X35101Y78500D01*
X34062Y80038D02*
X34825Y80801D01*
X152516Y45000D02*
X152761D01*
X182739D02*
X198657D01*
X153966Y46205D02*
X181534D01*
X141919Y34403D02*
X152516Y45000D01*
X181534Y46205D02*
X182739Y45000D01*
X152761D02*
X153966Y46205D01*
X155499Y51951D02*
X171920D01*
X172167Y51705D01*
X142451Y38903D02*
X155499Y51951D01*
X180953Y44802D02*
X182255Y43500D01*
X154547Y44802D02*
X180953D01*
X153000Y43500D02*
X153245D01*
X142500Y33000D02*
X153000Y43500D01*
X153245D02*
X154547Y44802D01*
X118997Y43003D02*
X121698Y40301D01*
X65467Y20952D02*
X87519Y43003D01*
X118997D01*
X123047Y38199D02*
X128217D01*
X121698Y39547D02*
Y40301D01*
Y39547D02*
X123047Y38199D01*
X128217D02*
X128921Y38903D01*
X142451D01*
X117953Y34301D02*
X119255Y33000D01*
X118534Y35704D02*
X119836Y34403D01*
X86286Y34301D02*
X117953D01*
X119836Y34403D02*
X141919D01*
X119255Y33000D02*
X142500D01*
X203000Y49343D02*
Y51500D01*
D65*
X35000Y5000D02*
D03*
X45000Y95000D02*
D03*
X255000Y5000D02*
D03*
Y95000D02*
D03*
X75000Y5000D02*
D03*
X65000D02*
D03*
X55000Y95000D02*
D03*
X35000D02*
D03*
X65000D02*
D03*
X75000D02*
D03*
X85000D02*
D03*
X95000D02*
D03*
X105000D02*
D03*
X115000D02*
D03*
X125000D02*
D03*
X135000D02*
D03*
X145000D02*
D03*
X155000D02*
D03*
X165000D02*
D03*
X175000D02*
D03*
X185000D02*
D03*
X195000D02*
D03*
X205000D02*
D03*
X215000D02*
D03*
X225000D02*
D03*
X235000D02*
D03*
X245000D02*
D03*
X45000Y5000D02*
D03*
X55000D02*
D03*
X85000D02*
D03*
X95000D02*
D03*
X105000D02*
D03*
X115000D02*
D03*
X125000D02*
D03*
X135000D02*
D03*
X145000D02*
D03*
X155000D02*
D03*
X165000D02*
D03*
X175000D02*
D03*
X185000D02*
D03*
X195000D02*
D03*
X205000D02*
D03*
X215000D02*
D03*
X225000D02*
D03*
X235000D02*
D03*
X245000D02*
D03*
D66*
X265000Y95000D02*
D03*
Y5000D02*
D03*
D67*
X137500Y50000D02*
D03*
D68*
X142500D02*
D03*
X37500D02*
D03*
Y45000D02*
D03*
D69*
Y55000D02*
D03*
D70*
X72500Y80000D02*
D03*
X68500Y76000D02*
D03*
Y80000D02*
D03*
X72500Y76000D02*
D03*
X64200Y69300D02*
D03*
X80000Y85000D02*
D03*
X229000Y44000D02*
D03*
X239500Y40000D02*
D03*
X229000Y50000D02*
D03*
X236253Y53280D02*
D03*
X242741Y46723D02*
D03*
X236259Y46772D02*
D03*
X242761Y53233D02*
D03*
X229000Y56500D02*
D03*
X239500Y60500D02*
D03*
X256236Y26957D02*
D03*
X252890D02*
D03*
X262547Y29921D02*
D03*
Y36614D02*
D03*
X249500Y43500D02*
D03*
X262547Y39961D02*
D03*
X249500Y50000D02*
D03*
X262547Y46654D02*
D03*
Y50000D02*
D03*
Y26575D02*
D03*
Y33268D02*
D03*
Y43307D02*
D03*
X249500Y56500D02*
D03*
X262547Y60039D02*
D03*
Y53347D02*
D03*
Y63386D02*
D03*
Y66732D02*
D03*
X259500Y73500D02*
D03*
X262547Y56693D02*
D03*
Y70079D02*
D03*
Y73425D02*
D03*
X259500Y82000D02*
D03*
X245000Y89000D02*
D03*
X267000Y18500D02*
D03*
X203000Y22500D02*
D03*
X168500Y21000D02*
D03*
X161500Y15000D02*
D03*
X155500Y42500D02*
D03*
X205000Y73500D02*
D03*
X161500Y62500D02*
D03*
X162500Y81000D02*
D03*
X130500Y83000D02*
D03*
X96000Y79000D02*
D03*
X79500Y59000D02*
D03*
Y54000D02*
D03*
X64500Y54500D02*
D03*
X73000Y65500D02*
D03*
X48000Y68500D02*
D03*
X47500Y85500D02*
D03*
X69500Y89000D02*
D03*
X124000Y40500D02*
D03*
X117000Y32000D02*
D03*
X102000D02*
D03*
X112000D02*
D03*
X107000D02*
D03*
Y39000D02*
D03*
X112000D02*
D03*
X102000D02*
D03*
X117000D02*
D03*
X97500D02*
D03*
X107000Y45500D02*
D03*
X112000D02*
D03*
X102000D02*
D03*
X117000D02*
D03*
X97500D02*
D03*
X55500Y29000D02*
D03*
X59500D02*
D03*
X51500D02*
D03*
X30000Y9500D02*
D03*
X37000Y24000D02*
D03*
X49500Y33000D02*
D03*
X29000Y40000D02*
D03*
X32000Y43500D02*
D03*
X37000Y16000D02*
D03*
X97500Y32000D02*
D03*
X82000Y17500D02*
D03*
X206500Y45400D02*
D03*
X206600Y51500D02*
D03*
X185500Y54000D02*
D03*
X37000Y74000D02*
D03*
X36000Y85500D02*
D03*
X48000Y82000D02*
D03*
X45000Y72500D02*
D03*
X29000Y62500D02*
D03*
X32000Y58500D02*
D03*
X29500Y90500D02*
D03*
X94000Y59500D02*
D03*
Y55000D02*
D03*
X50500Y59000D02*
D03*
X44800Y27500D02*
D03*
X44600Y12900D02*
D03*
X72000Y17500D02*
D03*
X191000Y66000D02*
D03*
X183500Y47500D02*
D03*
X76000Y88000D02*
D03*
X149000Y64000D02*
D03*
X156000Y61000D02*
D03*
X89000Y71500D02*
D03*
X187500Y48000D02*
D03*
Y51500D02*
D03*
X44600Y18100D02*
D03*
X190500Y71500D02*
D03*
X201000Y64000D02*
D03*
X174500Y61500D02*
D03*
X172000Y58500D02*
D03*
X253500Y89000D02*
D03*
X181700Y75600D02*
D03*
X249500Y89000D02*
D03*
X95500Y84500D02*
D03*
X80000Y47500D02*
D03*
X75000Y20500D02*
D03*
X79000D02*
D03*
X44600Y22600D02*
D03*
X202100Y44800D02*
D03*
X60000Y50000D02*
D03*
X31500Y77500D02*
D03*
X35500Y78500D02*
D03*
X48701Y74000D02*
D03*
X49000Y78000D02*
D03*
X198500Y39500D02*
D03*
X203000Y51500D02*
D03*
X57000Y16500D02*
D03*
X52500D02*
D03*
X48000D02*
D03*
X150000Y52500D02*
D03*
X164500Y59286D02*
D03*
X185000Y67500D02*
D03*
X190000Y75500D02*
D03*
X180500Y42000D02*
D03*
X196500Y27000D02*
D03*
X209000Y33000D02*
D03*
X168500Y77500D02*
D03*
X188000Y39500D02*
D03*
X206000Y40000D02*
D03*
X232757Y27243D02*
D03*
X219500Y27500D02*
D03*
X226000D02*
D03*
X249547Y32000D02*
D03*
X246197Y26957D02*
D03*
X246193Y68000D02*
D03*
X216079Y73043D02*
D03*
X216083Y32000D02*
D03*
X239504Y26957D02*
D03*
X242854Y32000D02*
D03*
X236161D02*
D03*
X229468D02*
D03*
X222776D02*
D03*
X222772Y73043D02*
D03*
X219421Y68000D02*
D03*
X229465Y73043D02*
D03*
X226114Y68000D02*
D03*
X236157Y73043D02*
D03*
X232807Y68000D02*
D03*
X239500D02*
D03*
X242850Y73043D02*
D03*
X249543D02*
D03*
D71*
X75944Y70000D02*
X78287Y72343D01*
Y83287D01*
X64200Y69300D02*
X64900Y70000D01*
X75944D01*
X78287Y83287D02*
X80000Y85000D01*
X53900Y88850D02*
X55000Y89950D01*
X53900Y68460D02*
Y88850D01*
X55000Y89950D02*
Y95000D01*
X43000Y57560D02*
X53900Y68460D01*
X43000Y50000D02*
Y57560D01*
Y50000D02*
X60000D01*
X37500D02*
X43000D01*
D78*
X77788Y90393D02*
D03*
X75000Y95000D02*
D03*
M02*
